<svg width="24" height="23" viewBox="0 0 24 23" fill="none" xmlns="http://www.w3.org/2000/svg">
<path opacity="0.1" fill-rule="evenodd" clip-rule="evenodd" d="M0.851562 11.7743C0.851562 5.62346 5.83782 0.637207 11.9887 0.637207C18.1395 0.637207 23.1258 5.62346 23.1258 11.7743C23.1258 17.9252 18.1395 22.9114 11.9887 22.9114C5.83782 22.9114 0.851562 17.9252 0.851562 11.7743Z" fill="white"/>
<path fill-rule="evenodd" clip-rule="evenodd" d="M11.9892 5.83453C10.376 5.83453 10.1736 5.84159 9.53998 5.87042C8.90763 5.89938 8.476 5.99949 8.09833 6.14638C7.70766 6.29809 7.37626 6.50103 7.04611 6.83132C6.7157 7.16147 6.51276 7.49287 6.36055 7.88341C6.21329 8.26121 6.11305 8.69296 6.08459 9.32506C6.05625 9.95865 6.04883 10.1612 6.04883 11.7744C6.04883 13.3876 6.05601 13.5894 6.08471 14.223C6.1138 14.8553 6.21391 15.2869 6.36067 15.6646C6.51251 16.0553 6.71545 16.3867 7.04573 16.7168C7.37577 17.0472 7.70716 17.2507 8.09758 17.4024C8.47551 17.5493 8.90726 17.6494 9.53948 17.6784C10.1731 17.7072 10.3754 17.7142 11.9884 17.7142C13.6017 17.7142 13.8036 17.7072 14.4371 17.6784C15.0695 17.6494 15.5016 17.5493 15.8795 17.4024C16.2701 17.2507 16.601 17.0472 16.931 16.7168C17.2614 16.3867 17.4644 16.0553 17.6166 15.6647C17.7626 15.2869 17.8628 14.8552 17.8925 14.2231C17.921 13.5895 17.9284 13.3876 17.9284 11.7744C17.9284 10.1612 17.921 9.95877 17.8925 9.32519C17.8628 8.69284 17.7626 8.26121 17.6166 7.88354C17.4644 7.49287 17.2614 7.16147 16.931 6.83132C16.6006 6.50091 16.2702 6.29797 15.8792 6.14638C15.5005 5.99949 15.0686 5.89938 14.4363 5.87042C13.8027 5.84159 13.601 5.83453 11.9873 5.83453H11.9892ZM11.4563 6.90493C11.6144 6.90468 11.7909 6.90493 11.9892 6.90493C13.5751 6.90493 13.7631 6.91062 14.3893 6.93908C14.9685 6.96556 15.2828 7.06233 15.4922 7.14364C15.7694 7.2513 15.967 7.37999 16.1748 7.58789C16.3827 7.79578 16.5114 7.99378 16.6193 8.27097C16.7006 8.4801 16.7975 8.79442 16.8238 9.37356C16.8523 9.99972 16.8585 10.1878 16.8585 11.773C16.8585 13.3582 16.8523 13.5463 16.8238 14.1725C16.7973 14.7516 16.7006 15.0659 16.6193 15.2751C16.5116 15.5522 16.3827 15.7496 16.1748 15.9574C15.9669 16.1653 15.7695 16.294 15.4922 16.4016C15.283 16.4833 14.9685 16.5798 14.3893 16.6063C13.7632 16.6348 13.5751 16.641 11.9892 16.641C10.4031 16.641 10.2151 16.6348 9.58896 16.6063C9.00982 16.5796 8.6955 16.4828 8.486 16.4015C8.20881 16.2939 8.01081 16.1652 7.80292 15.9573C7.59502 15.7494 7.46632 15.5519 7.35842 15.2746C7.27712 15.0654 7.18022 14.7511 7.15386 14.172C7.1254 13.5458 7.11971 13.3577 7.11971 11.7715C7.11971 10.1853 7.1254 9.99823 7.15386 9.37207C7.18035 8.79294 7.27712 8.47862 7.35842 8.26924C7.46608 7.99205 7.59502 7.79405 7.80292 7.58616C8.01081 7.37826 8.20881 7.24956 8.486 7.14166C8.69538 7.05998 9.00982 6.96346 9.58896 6.93685C10.1369 6.91211 10.3493 6.90468 11.4563 6.90344V6.90493ZM15.1598 7.89119C14.7663 7.89119 14.447 8.21009 14.447 8.60373C14.447 8.99724 14.7663 9.31651 15.1598 9.31651C15.5533 9.31651 15.8726 8.99724 15.8726 8.60373C15.8726 8.21021 15.5533 7.89119 15.1598 7.89119ZM11.9892 8.72401C10.3046 8.72401 8.93882 10.0898 8.93882 11.7744C8.93882 13.4589 10.3046 14.8241 11.9892 14.8241C13.6738 14.8241 15.0391 13.4589 15.0391 11.7744C15.0391 10.0898 13.6738 8.72401 11.9892 8.72401ZM11.9892 9.79442C13.0826 9.79442 13.9691 10.6808 13.9691 11.7744C13.9691 12.8678 13.0826 13.7543 11.9892 13.7543C10.8956 13.7543 10.0092 12.8678 10.0092 11.7744C10.0092 10.6808 10.8956 9.79442 11.9892 9.79442Z" fill="white"/>
</svg>
