<svg width="23" height="23" viewBox="0 0 23 23" fill="none" xmlns="http://www.w3.org/2000/svg">
<path opacity="0.1" fill-rule="evenodd" clip-rule="evenodd" d="M0.262695 11.7743C0.262695 5.62346 5.24895 0.637207 11.3998 0.637207C17.5507 0.637207 22.5369 5.62346 22.5369 11.7743C22.5369 17.9252 17.5507 22.9114 11.3998 22.9114C5.24895 22.9114 0.262695 17.9252 0.262695 11.7743Z" fill="white"/>
<path fill-rule="evenodd" clip-rule="evenodd" d="M17.34 11.7661C17.34 12.1678 17.2991 12.5689 17.2188 12.9599C17.1405 13.3417 17.0245 13.7164 16.8725 14.0747C16.724 14.4266 16.5398 14.7658 16.3246 15.082C16.1126 15.3963 15.8684 15.6911 15.6001 15.9599C15.3312 16.2275 15.0354 16.471 14.7213 16.6839C14.4039 16.8977 14.0643 17.0816 13.7122 17.2308C13.3534 17.3819 12.9778 17.4978 12.5964 17.576C12.2049 17.6565 11.8023 17.6976 11.4 17.6976C10.9974 17.6976 10.5948 17.6565 10.2038 17.576C9.82186 17.4978 9.44625 17.3819 9.08775 17.2308C8.73565 17.0816 8.3957 16.8977 8.0784 16.6839C7.76428 16.4711 7.46844 16.2275 7.20015 15.9599C6.93157 15.6911 6.68734 15.3963 6.47503 15.082C6.26098 14.7658 6.0765 14.4266 5.92743 14.0747C5.77543 13.7164 5.65913 13.3417 5.58053 12.9599C5.50107 12.5689 5.46045 12.1678 5.46045 11.7661C5.46045 11.3641 5.50104 10.9621 5.58055 10.5719C5.65916 10.1902 5.77545 9.81486 5.92745 9.45718C6.07652 9.105 6.261 8.76557 6.47506 8.44928C6.68737 8.13476 6.9316 7.84048 7.20017 7.57142C7.46846 7.30379 7.7643 7.06082 8.07842 6.84823C8.39572 6.63361 8.73567 6.44972 9.08777 6.30026C9.44627 6.14875 9.82186 6.03263 10.2039 5.95502C10.5948 5.87509 10.9974 5.83453 11.4 5.83453C11.8023 5.83453 12.2049 5.87509 12.5964 5.95502C12.9778 6.03265 13.3534 6.14878 13.7122 6.30026C14.0643 6.4497 14.404 6.63361 14.7213 6.84823C15.0354 7.06082 15.3313 7.30379 15.6001 7.57142C15.8684 7.84048 16.1126 8.13476 16.3246 8.44928C16.5398 8.76557 16.724 9.10503 16.8725 9.45718C17.0245 9.81486 17.1405 10.1902 17.2188 10.5719C17.2991 10.9621 17.34 11.3641 17.34 11.7661ZM9.23564 7.18448C7.82108 7.8515 6.76532 9.15307 6.43612 10.7217C6.56985 10.7229 8.68369 10.7495 11.1192 10.1033C10.2412 8.54571 9.30323 7.27458 9.23564 7.18448ZM11.5394 10.8833C8.92761 11.6641 6.42133 11.6079 6.33143 11.6045C6.32996 11.6589 6.32736 11.7116 6.32736 11.7661C6.32736 13.0674 6.81898 14.2537 7.62704 15.1507C7.6253 15.148 9.01347 12.6888 11.7509 11.8049C11.817 11.7829 11.8843 11.7632 11.951 11.7441C11.8237 11.4562 11.6848 11.1677 11.5394 10.8833ZM14.75 7.96445C13.8569 7.1781 12.6843 6.70111 11.4 6.70111C10.9878 6.70111 10.5878 6.75093 10.2047 6.84303C10.2807 6.94499 11.2335 8.20717 12.101 9.79777C14.015 9.08125 14.7375 7.98298 14.75 7.96445ZM12.2968 12.5834C12.2855 12.5871 12.2742 12.5904 12.2632 12.5944C9.27024 13.6363 8.29286 15.7359 8.28229 15.7589C9.14345 16.4276 10.2236 16.8311 11.4 16.8311C12.1025 16.8311 12.7716 16.6882 13.3804 16.4296C13.3053 15.9871 13.0106 14.4359 12.2968 12.5834ZM14.2346 15.9668C15.3735 15.1993 16.1825 13.9806 16.4081 12.5689C16.3037 12.5353 14.8845 12.0867 13.2472 12.3488C13.9126 14.1746 14.1829 15.6616 14.2346 15.9668ZM12.4914 10.5525C12.6092 10.7941 12.7232 11.04 12.8284 11.287C12.8659 11.3757 12.9024 11.4626 12.9381 11.5494C14.6807 11.3305 16.3974 11.6989 16.4708 11.7139C16.4592 10.5132 16.0291 9.41112 15.3173 8.54834C15.3078 8.56192 14.4942 9.73578 12.4914 10.5525Z" fill="white"/>
</svg>
