<svg width="39" height="36" viewBox="0 0 39 36" fill="none" xmlns="http://www.w3.org/2000/svg">
<g clip-path="url(#clip0_211_2332)" filter="url(#filter0_d_211_2332)">
<path d="M12.4106 6.38666C14.0523 6.38676 15.6544 6.89176 16.9995 7.83295C18.3447 8.77426 19.3676 10.1069 19.9302 11.6494C20.4927 13.1918 20.5674 14.8697 20.144 16.456C19.7206 18.0423 18.8194 19.4606 17.563 20.5175L17.1401 20.873L17.644 21.1005C19.7136 22.0371 21.4942 23.5112 22.8013 25.3691L22.8062 25.3759L22.812 25.3828C22.9136 25.5128 22.9877 25.6626 23.0298 25.8222C23.0718 25.9817 23.0804 26.1483 23.0562 26.3115C23.0319 26.4746 22.9747 26.631 22.8882 26.7714C22.8016 26.9118 22.6881 27.0339 22.5532 27.1288C22.4184 27.2238 22.2653 27.29 22.104 27.3242C21.9426 27.3583 21.7756 27.3593 21.6138 27.3271C21.4519 27.2949 21.2977 27.2301 21.1616 27.1367H21.1626C21.0265 27.0433 20.91 26.9236 20.8218 26.7841L20.8179 26.7773L20.813 26.7704L20.6313 26.5204C19.7073 25.2851 18.5162 24.2722 17.145 23.5595C15.6826 22.7995 14.0587 22.4024 12.4106 22.4023C10.7624 22.4023 9.13781 22.7994 7.67529 23.5595C6.21273 24.3197 4.95448 25.4214 4.00732 26.7704L4.00635 26.7714C3.89503 26.9312 3.74646 27.0614 3.57373 27.1513C3.40091 27.2412 3.20897 27.2886 3.01416 27.288H3.01221C2.76231 27.2888 2.51825 27.2107 2.31494 27.0654L2.31299 27.0644L2.21826 26.9902C2.00678 26.8071 1.8642 26.5553 1.81592 26.2773C1.76767 25.9992 1.81718 25.7143 1.95459 25.4706L2.01904 25.3691C3.32611 23.5112 5.10676 22.0371 7.17627 21.1005L7.68018 20.873L7.25732 20.5175C6.0009 19.4606 5.09972 18.0423 4.67627 16.456C4.2529 14.8697 4.32764 13.1918 4.89014 11.6494C5.45267 10.1069 6.47557 8.77426 7.8208 7.83295C9.16603 6.89167 10.7688 6.38666 12.4106 6.38666ZM23.0464 6.39642H23.0483C24.6911 6.39173 26.2956 6.8942 27.6431 7.83392C28.9904 8.7737 30.0155 10.1062 30.5786 11.6494C31.1416 13.1924 31.2158 14.8714 30.7905 16.4579C30.365 18.0447 29.4604 19.4621 28.2007 20.5165L27.7759 20.872L28.2808 21.1005C30.3503 22.0371 32.1309 23.5112 33.438 25.3691L33.4399 25.371C33.5327 25.5008 33.5987 25.6481 33.6343 25.8036C33.6698 25.9593 33.6743 26.1209 33.647 26.2783C33.6196 26.4356 33.561 26.586 33.4751 26.7206C33.3891 26.8553 33.2772 26.9714 33.146 27.0624L33.1421 27.0654C32.9388 27.2107 32.6947 27.2879 32.4448 27.287C32.2497 27.2857 32.0573 27.2384 31.8843 27.1484C31.7111 27.0581 31.5617 26.9278 31.4487 26.7685C30.4997 25.4224 29.2415 24.3234 27.7798 23.5644C26.4091 22.8526 24.897 22.459 23.356 22.4111L23.0474 22.4062L22.9263 22.4003C22.6476 22.3726 22.3858 22.2494 22.186 22.0497C21.9576 21.8213 21.8286 21.5114 21.8286 21.1884C21.8286 20.8654 21.9576 20.5555 22.186 20.3271C22.4145 20.0987 22.7244 19.9706 23.0474 19.9706C24.5241 19.9705 25.9406 19.383 26.9849 18.3388C28.0289 17.2945 28.6157 15.878 28.6157 14.4013C28.6156 12.9246 28.0291 11.508 26.9849 10.4638C26.0057 9.48469 24.6992 8.90798 23.3228 8.83978L23.0474 8.83295C22.5383 8.83201 22.0311 8.90227 21.5415 9.04193L21.4204 9.0722C21.3019 9.09505 21.1805 9.09975 21.0601 9.08685C20.8994 9.06964 20.7436 9.02122 20.6021 8.9433C20.4607 8.86544 20.3362 8.76011 20.2358 8.63373C20.1354 8.50718 20.0609 8.36152 20.0171 8.20599C19.9733 8.05049 19.9612 7.88782 19.981 7.72748C20.0007 7.56719 20.0523 7.41265 20.1323 7.2724C20.2124 7.1321 20.3197 7.00855 20.4478 6.9101C20.5758 6.81175 20.7223 6.73948 20.8784 6.69818L20.8843 6.6972C21.5875 6.49701 22.3153 6.39521 23.0464 6.39642ZM13.4966 8.94037C12.4164 8.7255 11.2963 8.8353 10.2788 9.25677C9.26143 9.67824 8.39161 10.3919 7.77979 11.3076C7.16797 12.2232 6.84137 13.3001 6.84131 14.4013C6.84131 15.878 7.42812 17.2945 8.47217 18.3388C9.51647 19.3831 10.9338 19.9706 12.4106 19.9706C13.5116 19.9705 14.5879 19.6437 15.5034 19.0322C16.4192 18.4203 17.1337 17.5497 17.5552 16.5322C17.9765 15.5148 18.0864 14.3954 17.8716 13.3154C17.6567 12.2352 17.1269 11.2426 16.3481 10.4638C15.5694 9.68506 14.5767 9.15525 13.4966 8.94037Z" fill="#4CAF4F" stroke="#4CAF4F" stroke-width="0.696069"/>
</g>
<defs>
<filter id="filter0_d_211_2332" x="-3.0752" y="0.306213" width="41.4111" height="41.4113" filterUnits="userSpaceOnUse" color-interpolation-filters="sRGB">
<feFlood flood-opacity="0" result="BackgroundImageFix"/>
<feColorMatrix in="SourceAlpha" type="matrix" values="0 0 0 0 0 0 0 0 0 0 0 0 0 0 0 0 0 0 127 0" result="hardAlpha"/>
<feOffset dy="4"/>
<feGaussianBlur stdDeviation="2"/>
<feComposite in2="hardAlpha" operator="out"/>
<feColorMatrix type="matrix" values="0 0 0 0 0 0 0 0 0 0 0 0 0 0 0 0 0 0 0.25 0"/>
<feBlend mode="normal" in2="BackgroundImageFix" result="effect1_dropShadow_211_2332"/>
<feBlend mode="normal" in="SourceGraphic" in2="effect1_dropShadow_211_2332" result="shape"/>
</filter>
<clipPath id="clip0_211_2332">
<rect width="33.4113" height="33.4113" fill="white" transform="translate(0.924805 0.306213)"/>
</clipPath>
</defs>
</svg>
