<svg width="35" height="34" viewBox="0 0 35 34" fill="none" xmlns="http://www.w3.org/2000/svg">
<path d="M28.7674 29.3839V26.5996C28.7674 25.1228 28.1807 23.7064 27.1364 22.6621C26.0921 21.6178 24.6757 21.0311 23.1988 21.0311H21.8067C21.4375 21.0311 21.0834 20.8844 20.8223 20.6233C20.5612 20.3623 20.4146 20.0082 20.4146 19.6389V12.6782C20.4146 11.9398 20.1212 11.2316 19.5991 10.7095C19.0769 10.1873 18.3687 9.89396 17.6303 9.89396C16.8918 9.89396 16.1836 10.1873 15.6615 10.7095C15.1393 11.2316 14.846 11.9398 14.846 12.6782V25.2075L11.5049 20.7526C11.2455 20.4069 10.9092 20.1262 10.5226 19.9329C10.136 19.7396 9.70969 19.6389 9.27744 19.6389H8.67325C7.46905 19.6389 6.49316 20.6148 6.49316 21.819C6.49316 22.2144 6.60036 22.6028 6.80361 22.9411L10.6696 29.3839M17.6303 5.71755V4.32541V5.71755ZM25.9831 14.0704H27.3752H25.9831ZM7.8853 14.0704H9.27744H7.8853ZM11.1471 7.58719L10.1628 6.60295L11.1471 7.58719ZM24.1135 7.58719L25.0977 6.60295L24.1135 7.58719Z" fill="#4CAF4F"/>
<path d="M28.7674 29.3839V26.5996C28.7674 25.1228 28.1807 23.7064 27.1364 22.6621C26.0921 21.6178 24.6757 21.0311 23.1988 21.0311H21.8067C21.4375 21.0311 21.0834 20.8844 20.8223 20.6233C20.5612 20.3623 20.4146 20.0082 20.4146 19.6389V12.6782C20.4146 11.9398 20.1212 11.2316 19.5991 10.7095C19.0769 10.1873 18.3687 9.89396 17.6303 9.89396V9.89396C16.8918 9.89396 16.1836 10.1873 15.6615 10.7095C15.1393 11.2316 14.846 11.9398 14.846 12.6782V25.2075L11.5049 20.7526C11.2455 20.4069 10.9092 20.1262 10.5226 19.9329C10.136 19.7396 9.70969 19.6389 9.27744 19.6389H8.67325C7.46905 19.6389 6.49316 20.6148 6.49316 21.819C6.49316 22.2144 6.60036 22.6028 6.80361 22.9411L10.6696 29.3839M17.6303 5.71755V4.32541M25.9831 14.0704H27.3752M7.8853 14.0704H9.27744M11.1471 7.58719L10.1628 6.60295M24.1135 7.58719L25.0977 6.60295" stroke="#4CAF4F" stroke-width="1.39214" stroke-linecap="round" stroke-linejoin="round"/>
</svg>
