<svg width="34" height="34" viewBox="0 0 34 34" fill="none" xmlns="http://www.w3.org/2000/svg">
<mask id="path-1-inside-1_211_2338" fill="white">
<path d="M20.0116 16.7646C19.844 16.7646 19.6883 16.7185 19.5501 16.6444V16.6463C19.5501 16.91 19.4476 17.1577 19.2616 17.3431C19.0757 17.5291 18.8282 17.6316 18.5648 17.6316C18.3948 17.6316 18.2372 17.5844 18.0974 17.5083C18.0833 17.7495 17.9869 17.975 17.8149 18.1472C17.6289 18.3332 17.3815 18.4357 17.1179 18.4357C16.5942 18.4357 16.169 18.024 16.1384 17.5081C15.9763 17.5957 15.7932 17.6416 15.6042 17.6295C15.0891 17.5957 14.6857 17.1506 14.6857 16.616V12.1844L14.1811 13.0586C13.9889 13.393 13.6291 13.6006 13.2417 13.6006C13.053 13.6006 12.8665 13.5511 12.7014 13.4564C12.4957 13.3372 12.3486 13.1458 12.2875 12.9169C12.226 12.6878 12.2578 12.4482 12.3767 12.2429C12.3768 12.2429 14.0277 9.38395 14.1285 9.20834C14.1404 9.18194 14.1745 9.10536 14.2036 9.04009C14.2313 8.97777 14.2551 8.91381 14.2779 8.84953C14.7757 7.44397 16.0085 6.57087 17.4952 6.57087C19.4259 6.57087 20.9966 8.27408 20.9966 10.3676L20.9968 15.7791C20.9968 16.0425 20.8945 16.29 20.7087 16.4761C20.5227 16.6621 20.2752 16.7646 20.0115 16.7646L20.0116 16.7646ZM17.4953 7.09441C16.2177 7.09441 15.1995 7.816 14.7713 9.02462C14.7439 9.10137 14.7154 9.17811 14.6821 9.2529C14.5855 9.46953 14.5855 9.46953 14.5583 9.50069L14.5547 9.49757C14.4199 9.75192 14.0194 10.4454 12.83 12.5049C12.7811 12.5893 12.7682 12.6874 12.7931 12.7812C12.8183 12.875 12.8789 12.954 12.9627 13.0024C13.2228 13.1518 13.579 13.0554 13.7272 12.7971L14.7208 11.0768C14.7802 10.9743 14.9002 10.924 15.0154 10.9551C15.1298 10.9858 15.2094 11.0896 15.2094 11.208V16.6161C15.2094 16.8713 15.4019 17.0915 15.6385 17.1071C15.775 17.1143 15.9022 17.0686 15.9978 16.9731C16.0848 16.8862 16.1327 16.7704 16.1327 16.6466V13.1096C16.1327 12.965 16.2499 12.8477 16.3945 12.8477C16.5392 12.8477 16.6564 12.9648 16.6564 13.1096L16.6563 17.4506C16.6563 17.7051 16.8634 17.9122 17.1179 17.9122C17.2416 17.9122 17.3577 17.8643 17.4448 17.7774C17.5317 17.6903 17.5796 17.5742 17.5796 17.4506V13.1096C17.5796 12.965 17.6966 12.8477 17.8415 12.8477C17.9861 12.8477 18.1033 12.9648 18.1033 13.1096L18.1032 16.6059V16.6466C18.1032 16.901 18.3103 17.1081 18.565 17.1081C18.6885 17.1081 18.8043 17.06 18.8918 16.9728C18.9787 16.886 19.0266 16.7703 19.0266 16.6464V13.1094C19.0266 12.9648 19.1437 12.8476 19.2885 12.8476C19.4332 12.8476 19.5504 12.9646 19.5504 13.1094L19.5501 15.7793C19.5501 16.0339 19.7572 16.2411 20.0116 16.2411C20.1354 16.2411 20.2512 16.193 20.3381 16.1063C20.4253 16.019 20.473 15.9029 20.473 15.7793L20.4732 10.3678C20.4732 8.56304 19.1373 7.09446 17.4952 7.09446L17.4953 7.09441Z"/>
</mask>
<path d="M20.0116 16.7646C19.844 16.7646 19.6883 16.7185 19.5501 16.6444V16.6463C19.5501 16.91 19.4476 17.1577 19.2616 17.3431C19.0757 17.5291 18.8282 17.6316 18.5648 17.6316C18.3948 17.6316 18.2372 17.5844 18.0974 17.5083C18.0833 17.7495 17.9869 17.975 17.8149 18.1472C17.6289 18.3332 17.3815 18.4357 17.1179 18.4357C16.5942 18.4357 16.169 18.024 16.1384 17.5081C15.9763 17.5957 15.7932 17.6416 15.6042 17.6295C15.0891 17.5957 14.6857 17.1506 14.6857 16.616V12.1844L14.1811 13.0586C13.9889 13.393 13.6291 13.6006 13.2417 13.6006C13.053 13.6006 12.8665 13.5511 12.7014 13.4564C12.4957 13.3372 12.3486 13.1458 12.2875 12.9169C12.226 12.6878 12.2578 12.4482 12.3767 12.2429C12.3768 12.2429 14.0277 9.38395 14.1285 9.20834C14.1404 9.18194 14.1745 9.10536 14.2036 9.04009C14.2313 8.97777 14.2551 8.91381 14.2779 8.84953C14.7757 7.44397 16.0085 6.57087 17.4952 6.57087C19.4259 6.57087 20.9966 8.27408 20.9966 10.3676L20.9968 15.7791C20.9968 16.0425 20.8945 16.29 20.7087 16.4761C20.5227 16.6621 20.2752 16.7646 20.0115 16.7646L20.0116 16.7646ZM17.4953 7.09441C16.2177 7.09441 15.1995 7.816 14.7713 9.02462C14.7439 9.10137 14.7154 9.17811 14.6821 9.2529C14.5855 9.46953 14.5855 9.46953 14.5583 9.50069L14.5547 9.49757C14.4199 9.75192 14.0194 10.4454 12.83 12.5049C12.7811 12.5893 12.7682 12.6874 12.7931 12.7812C12.8183 12.875 12.8789 12.954 12.9627 13.0024C13.2228 13.1518 13.579 13.0554 13.7272 12.7971L14.7208 11.0768C14.7802 10.9743 14.9002 10.924 15.0154 10.9551C15.1298 10.9858 15.2094 11.0896 15.2094 11.208V16.6161C15.2094 16.8713 15.4019 17.0915 15.6385 17.1071C15.775 17.1143 15.9022 17.0686 15.9978 16.9731C16.0848 16.8862 16.1327 16.7704 16.1327 16.6466V13.1096C16.1327 12.965 16.2499 12.8477 16.3945 12.8477C16.5392 12.8477 16.6564 12.9648 16.6564 13.1096L16.6563 17.4506C16.6563 17.7051 16.8634 17.9122 17.1179 17.9122C17.2416 17.9122 17.3577 17.8643 17.4448 17.7774C17.5317 17.6903 17.5796 17.5742 17.5796 17.4506V13.1096C17.5796 12.965 17.6966 12.8477 17.8415 12.8477C17.9861 12.8477 18.1033 12.9648 18.1033 13.1096L18.1032 16.6059V16.6466C18.1032 16.901 18.3103 17.1081 18.565 17.1081C18.6885 17.1081 18.8043 17.06 18.8918 16.9728C18.9787 16.886 19.0266 16.7703 19.0266 16.6464V13.1094C19.0266 12.9648 19.1437 12.8476 19.2885 12.8476C19.4332 12.8476 19.5504 12.9646 19.5504 13.1094L19.5501 15.7793C19.5501 16.0339 19.7572 16.2411 20.0116 16.2411C20.1354 16.2411 20.2512 16.193 20.3381 16.1063C20.4253 16.019 20.473 15.9029 20.473 15.7793L20.4732 10.3678C20.4732 8.56304 19.1373 7.09446 17.4952 7.09446L17.4953 7.09441Z" fill="#4CAF4F"/>
<path d="M20.0116 16.7646V15.8365H23.2906L20.498 17.555L20.0116 16.7646ZM19.5501 16.6444H18.622V15.0936L19.9887 15.8264L19.5501 16.6444ZM19.2616 17.3431L18.6054 16.6869L18.6063 16.686L19.2616 17.3431ZM18.0974 17.5083L17.1709 17.4541L17.2563 15.9934L18.5413 16.6932L18.0974 17.5083ZM17.8149 18.1472L18.4715 18.8031L18.4711 18.8035L17.8149 18.1472ZM16.1384 17.5081L15.6971 16.6916L16.9785 15.9991L17.0648 17.4531L16.1384 17.5081ZM15.6042 17.6295L15.5447 18.5557L15.5435 18.5556L15.6042 17.6295ZM14.6857 12.1844L13.8819 11.7204L15.6138 8.71998V12.1844H14.6857ZM14.1811 13.0586L13.3764 12.5961L13.3773 12.5946L14.1811 13.0586ZM12.7014 13.4564L12.24 14.2617L12.2359 14.2593L12.7014 13.4564ZM12.2875 12.9169L13.1838 12.6763L13.1841 12.6773L12.2875 12.9169ZM12.3767 12.2429L11.5735 11.7778L11.8416 11.3148H12.3767V12.2429ZM14.1285 9.20834L14.9737 9.5916L14.9555 9.63179L14.9335 9.67007L14.1285 9.20834ZM14.2036 9.04009L13.3556 8.66296L13.3556 8.66295L14.2036 9.04009ZM14.2779 8.84953L15.1527 9.1594L15.1526 9.15966L14.2779 8.84953ZM20.9966 10.3676L20.0685 10.3677V10.3676H20.9966ZM20.9968 15.7791L21.9249 15.7791V15.7791H20.9968ZM20.7087 16.4761L21.3655 17.1318L21.3649 17.1324L20.7087 16.4761ZM20.0115 16.7646V17.6927H16.7326L19.5251 15.9742L20.0115 16.7646ZM17.4953 7.09441V6.16632H18.7257L18.3876 7.34938L17.4953 7.09441ZM14.7713 9.02462L15.6461 9.33454L15.6454 9.33654L14.7713 9.02462ZM14.6821 9.2529L15.53 9.63035L15.5298 9.63084L14.6821 9.2529ZM14.5583 9.50069L15.2572 10.1113L14.6501 10.8062L13.9517 10.2031L14.5583 9.50069ZM14.5547 9.49757L13.7346 9.06297L14.28 8.03401L15.1613 8.79517L14.5547 9.49757ZM12.83 12.5049L13.6337 12.969L13.6333 12.9697L12.83 12.5049ZM12.7931 12.7812L11.8969 13.0225L11.8961 13.0196L12.7931 12.7812ZM12.9627 13.0024L12.5004 13.8072L12.4987 13.8062L12.9627 13.0024ZM13.7272 12.7971L12.9223 12.3351L12.9235 12.3329L13.7272 12.7971ZM14.7208 11.0768L13.9172 10.6126L13.9177 10.6116L14.7208 11.0768ZM15.0154 10.9551L14.7752 11.8516L14.7729 11.851L15.0154 10.9551ZM15.6385 17.1071L15.5895 18.034L15.5776 18.0332L15.6385 17.1071ZM15.9978 16.9731L16.6541 17.6294L16.6535 17.63L15.9978 16.9731ZM16.6564 13.1096H17.5845V13.1097L16.6564 13.1096ZM16.6563 17.4506H15.7282V17.4505L16.6563 17.4506ZM17.4448 17.7774L18.1016 18.4331L18.1004 18.4343L17.4448 17.7774ZM18.1033 13.1096H19.0314V13.1097L18.1033 13.1096ZM18.1032 16.6059H17.1751V16.6059L18.1032 16.6059ZM18.8918 16.9728L19.5475 17.6297L19.5469 17.6303L18.8918 16.9728ZM19.5504 13.1094H20.4785V13.1096L19.5504 13.1094ZM19.5501 15.7793H18.622V15.7791L19.5501 15.7793ZM20.3381 16.1063L20.9943 16.7625L20.9937 16.7631L20.3381 16.1063ZM20.473 15.7793H19.5449V15.7792L20.473 15.7793ZM20.4732 10.3678H21.4013V10.3678L20.4732 10.3678ZM17.4952 7.09446V8.02256H16.2648L16.6029 6.8395L17.4952 7.09446ZM20.0116 17.6927C19.6698 17.6927 19.3647 17.598 19.1115 17.4623L19.9887 15.8264C20.0007 15.8329 20.0083 15.8353 20.0113 15.8361C20.0139 15.8368 20.0136 15.8365 20.0116 15.8365V17.6927ZM20.4782 16.6444V16.6463H18.622V16.6444H20.4782ZM20.4782 16.6463C20.4782 17.1554 20.2784 17.6398 19.917 18.0003L18.6063 16.686C18.6129 16.6794 18.6162 16.6737 18.6181 16.6691C18.62 16.6644 18.622 16.6573 18.622 16.6463H20.4782ZM19.9179 17.9994C19.5577 18.3596 19.0742 18.5597 18.5648 18.5597V16.7035C18.5755 16.7035 18.5825 16.7016 18.5872 16.6996C18.592 16.6976 18.5981 16.6941 18.6054 16.6869L19.9179 17.9994ZM18.5648 18.5597C18.2186 18.5597 17.9097 18.4628 17.6536 18.3234L18.5413 16.6932C18.5534 16.6998 18.561 16.7023 18.5641 16.7031C18.5667 16.7038 18.5665 16.7035 18.5648 16.7035V18.5597ZM19.0239 17.5624C18.9972 18.0193 18.8119 18.4623 18.4715 18.8031L17.1583 17.4913C17.1617 17.4878 17.1637 17.4848 17.1654 17.481C17.1672 17.4768 17.1701 17.4683 17.1709 17.4541L19.0239 17.5624ZM18.4711 18.8035C18.1109 19.1637 17.6273 19.3638 17.1179 19.3638V17.5076C17.1287 17.5076 17.1358 17.5056 17.1405 17.5037C17.1452 17.5017 17.1514 17.4982 17.1586 17.4909L18.4711 18.8035ZM17.1179 19.3638C16.0933 19.3638 15.2711 18.5596 15.2119 17.5632L17.0648 17.4531C17.0658 17.4689 17.0722 17.4827 17.0836 17.4936C17.0892 17.4989 17.0949 17.5023 17.0998 17.5044C17.1041 17.5061 17.1096 17.5076 17.1179 17.5076V19.3638ZM16.5796 18.3246C16.2799 18.4866 15.9244 18.58 15.5447 18.5557L15.6637 16.7033C15.6637 16.7033 15.6657 16.7035 15.6706 16.7023C15.6759 16.7011 15.6849 16.6982 15.6971 16.6916L16.5796 18.3246ZM15.5435 18.5556C14.513 18.488 13.7576 17.6116 13.7576 16.616H15.6138C15.6138 16.6474 15.6252 16.6715 15.6395 16.6873C15.6534 16.7026 15.6628 16.7032 15.665 16.7034L15.5435 18.5556ZM13.7576 16.616V12.1844H15.6138V16.616H13.7576ZM15.4895 12.6483L14.9849 13.5226L13.3773 12.5946L13.8819 11.7204L15.4895 12.6483ZM14.9857 13.5211C14.6271 14.145 13.9596 14.5287 13.2417 14.5287V12.6725C13.2986 12.6725 13.3507 12.6409 13.3764 12.5961L14.9857 13.5211ZM13.2417 14.5287C12.8908 14.5287 12.5453 14.4366 12.24 14.2617L13.1628 12.6512C13.1878 12.6655 13.2152 12.6725 13.2417 12.6725V14.5287ZM12.2359 14.2593C11.8192 14.0178 11.5159 13.6247 11.3908 13.1564L13.1841 12.6773C13.1833 12.6741 13.1809 12.6685 13.1765 12.6627C13.172 12.6569 13.1679 12.6541 13.1669 12.6535L12.2359 14.2593ZM11.3911 13.1575C11.2655 12.6896 11.3313 12.1962 11.5735 11.7778L13.1798 12.7079C13.1812 12.7056 13.1835 12.7003 13.1845 12.6928C13.1855 12.6853 13.1846 12.6793 13.1838 12.6763L11.3911 13.1575ZM12.3767 11.3148C11.9214 11.4341 11.5806 11.7657 11.5781 11.77C11.5772 11.7714 11.576 11.7735 11.5756 11.7742C11.5754 11.7746 11.575 11.7753 11.5748 11.7755C11.5747 11.7757 11.5746 11.776 11.5745 11.776C11.5744 11.7763 11.5744 11.7762 11.5748 11.7756C11.5754 11.7745 11.5765 11.7727 11.578 11.77C11.5811 11.7647 11.5856 11.7568 11.5917 11.7463C11.6038 11.7254 11.6215 11.6947 11.6442 11.6554C11.6895 11.577 11.7544 11.4646 11.8326 11.3293C11.9889 11.0585 12.1985 10.6957 12.4111 10.3274C12.8371 9.58953 13.2739 8.83288 13.3234 8.74662L14.9335 9.67007C14.8823 9.75942 14.4433 10.52 14.0186 11.2555C13.8059 11.6239 13.5964 11.9868 13.44 12.2575C13.3618 12.3929 13.2969 12.5053 13.2515 12.5839C13.2288 12.6232 13.211 12.654 13.1988 12.6751C13.1928 12.6856 13.188 12.6937 13.1848 12.6993C13.1832 12.702 13.1819 12.7043 13.181 12.706C13.1805 12.7067 13.18 12.7077 13.1794 12.7086C13.1792 12.709 13.1786 12.71 13.1779 12.7112C13.1775 12.712 13.1762 12.7142 13.1753 12.7157C13.1727 12.72 12.8319 13.0516 12.3767 13.1709V11.3148ZM13.2832 8.82508C13.2934 8.80255 13.3258 8.72991 13.3556 8.66296L15.0516 9.41721C15.0233 9.48081 14.9874 9.56133 14.9737 9.5916L13.2832 8.82508ZM13.3556 8.66295C13.3685 8.63395 13.3827 8.59689 13.4031 8.5394L15.1526 9.15966C15.1274 9.23074 15.0941 9.32159 15.0516 9.41723L13.3556 8.66295ZM13.403 8.53965C14.0316 6.76504 15.6138 5.64277 17.4952 5.64277V7.49896C16.4032 7.49896 15.5198 8.1229 15.1527 9.1594L13.403 8.53965ZM17.4952 5.64277C20.0078 5.64277 21.9247 7.83371 21.9247 10.3676H20.0685C20.0685 8.71445 18.844 7.49896 17.4952 7.49896V5.64277ZM21.9247 10.3676L21.9249 15.7791L20.0687 15.7792L20.0685 10.3677L21.9247 10.3676ZM21.9249 15.7791C21.9249 16.2881 21.7252 16.7714 21.3655 17.1318L20.0518 15.8205C20.0591 15.8131 20.0627 15.8069 20.0647 15.802C20.0667 15.7971 20.0687 15.79 20.0687 15.7791H21.9249ZM21.3649 17.1324C21.0046 17.4927 20.521 17.6927 20.0115 17.6927V15.8365C20.0225 15.8365 20.0296 15.8345 20.0343 15.8325C20.039 15.8306 20.0452 15.8271 20.0524 15.8199L21.3649 17.1324ZM19.5251 15.9742L19.5252 15.9741L20.498 17.555L20.498 17.555L19.5251 15.9742ZM17.4953 8.0225C16.6128 8.0225 15.9437 8.49454 15.6461 9.33454L13.8965 8.7147C14.4553 7.13745 15.8226 6.16632 17.4953 6.16632V8.0225ZM15.6454 9.33654C15.6161 9.41863 15.5781 9.52232 15.53 9.63035L13.8342 8.87544C13.8527 8.83391 13.8717 8.7841 13.8972 8.7127L15.6454 9.33654ZM15.5298 9.63084C15.4873 9.72616 15.4517 9.80666 15.4244 9.86119C15.4075 9.89503 15.3801 9.94719 15.3404 10.005C15.3002 10.0635 15.2604 10.1076 15.2572 10.1113L13.8594 8.89003C13.8616 8.88754 13.8609 8.88835 13.8598 8.88963C13.8584 8.89127 13.8547 8.89548 13.85 8.90125C13.8451 8.90722 13.8389 8.91494 13.832 8.92412C13.825 8.93338 13.8178 8.94323 13.8107 8.95362C13.7961 8.97478 13.7849 8.99331 13.777 9.00733C13.7695 9.02041 13.765 9.02946 13.764 9.0315C13.7629 9.03361 13.7636 9.03237 13.7667 9.02562C13.7698 9.01908 13.7741 9.00965 13.7803 8.99594C13.7865 8.98234 13.7939 8.96592 13.8029 8.94563C13.812 8.92537 13.8223 8.90216 13.8345 8.87495L15.5298 9.63084ZM13.9517 10.2031L13.9481 10.2L15.1613 8.79517L15.1649 8.79828L13.9517 10.2031ZM15.3747 9.93217C15.2295 10.2063 14.8148 10.924 13.6337 12.969L12.0263 12.0407C13.224 9.96691 13.6103 9.2976 13.7346 9.06297L15.3747 9.93217ZM13.6333 12.9697C13.7075 12.8414 13.7282 12.6865 13.69 12.5428L11.8961 13.0196C11.8081 12.6883 11.8547 12.3373 12.0267 12.04L13.6333 12.9697ZM13.6893 12.5399C13.6511 12.3981 13.5572 12.274 13.4267 12.1986L12.4987 13.8062C12.2005 13.6341 11.9856 13.3519 11.8969 13.0225L13.6893 12.5399ZM13.4249 12.1976C13.3193 12.137 13.2165 12.1374 13.1456 12.1565C13.0749 12.1755 12.9843 12.227 12.9223 12.3351L14.5321 13.2591C14.1277 13.9638 13.2033 14.2109 12.5004 13.8072L13.4249 12.1976ZM12.9235 12.3329L13.9172 10.6126L15.5245 11.541L14.5309 13.2613L12.9235 12.3329ZM13.9177 10.6116C14.1858 10.1488 14.733 9.91721 15.2578 10.0593L14.7729 11.851C15.0675 11.9307 15.3746 11.7998 15.5239 11.542L13.9177 10.6116ZM15.2555 10.0586C15.7762 10.1981 16.1375 10.67 16.1375 11.208H14.2813C14.2813 11.5092 14.4834 11.7734 14.7752 11.8516L15.2555 10.0586ZM16.1375 11.208V16.6161H14.2813V11.208H16.1375ZM16.1375 16.6161C16.1375 16.5104 16.0983 16.4142 16.034 16.3407C15.9697 16.2672 15.8564 16.1914 15.6995 16.181L15.5776 18.0332C14.7963 17.9818 14.2813 17.3012 14.2813 16.6161H16.1375ZM15.6876 16.1803C15.5779 16.1745 15.444 16.2147 15.3422 16.3163L16.6535 17.63C16.3605 17.9225 15.9721 18.0541 15.5895 18.0339L15.6876 16.1803ZM15.3416 16.3169C15.2535 16.4049 15.2046 16.5256 15.2046 16.6466H17.0607C17.0607 17.0152 16.916 17.3675 16.6541 17.6294L15.3416 16.3169ZM15.2046 16.6466V13.1096H17.0607V16.6466H15.2046ZM15.2046 13.1096C15.2046 12.4524 15.7373 11.9196 16.3945 11.9196V13.7758C16.7625 13.7758 17.0607 13.4776 17.0607 13.1096H15.2046ZM16.3945 11.9196C17.0514 11.9196 17.5845 12.4519 17.5845 13.1096H15.7284C15.7284 13.4778 16.027 13.7758 16.3945 13.7758V11.9196ZM17.5845 13.1097L17.5844 17.4506L15.7282 17.4505L15.7284 13.1096L17.5845 13.1097ZM17.5844 17.4506C17.5844 17.1925 17.376 16.9841 17.1179 16.9841V18.8403C16.3508 18.8403 15.7282 18.2177 15.7282 17.4506H17.5844ZM17.1179 16.9841C16.9971 16.9841 16.877 17.0328 16.7891 17.1205L18.1004 18.4343C17.8383 18.6959 17.486 18.8403 17.1179 18.8403V16.9841ZM16.7879 17.1218C16.7001 17.2097 16.6515 17.3298 16.6515 17.4506H18.5076C18.5076 17.8187 18.3632 18.171 18.1016 18.4331L16.7879 17.1218ZM16.6515 17.4506V13.1096H18.5076V17.4506H16.6515ZM16.6515 13.1096C16.6515 12.4528 17.1837 11.9196 17.8415 11.9196V13.7758C18.2096 13.7758 18.5076 13.4772 18.5076 13.1096H16.6515ZM17.8415 11.9196C18.4983 11.9196 19.0314 12.4519 19.0314 13.1096H17.1753C17.1753 13.4778 17.4739 13.7758 17.8415 13.7758V11.9196ZM19.0314 13.1097L19.0313 16.606L17.1751 16.6059L17.1753 13.1096L19.0314 13.1097ZM19.0313 16.6059V16.6466H17.1751V16.6059H19.0313ZM19.0313 16.6466C19.0313 16.3879 18.8224 16.18 18.565 16.18V18.0362C17.7982 18.0362 17.1751 17.414 17.1751 16.6466H19.0313ZM18.565 16.18C18.4417 16.18 18.3223 16.2301 18.2368 16.3153L19.5469 17.6303C19.2862 17.8899 18.9353 18.0362 18.565 18.0362V16.18ZM18.2362 16.3159C18.1474 16.4045 18.0985 16.5256 18.0985 16.6464H19.9547C19.9547 17.0149 19.8101 17.3675 19.5475 17.6297L18.2362 16.3159ZM18.0985 16.6464V13.1094H19.9547V16.6464H18.0985ZM18.0985 13.1094C18.0985 12.4526 18.6308 11.9195 19.2885 11.9195V13.7756C19.6567 13.7756 19.9547 13.477 19.9547 13.1094H18.0985ZM19.2885 11.9195C19.9454 11.9195 20.4785 12.4517 20.4785 13.1094H18.6223C18.6223 13.4776 18.921 13.7756 19.2885 13.7756V11.9195ZM20.4785 13.1096L20.4782 15.7794L18.622 15.7791L18.6223 13.1093L20.4785 13.1096ZM20.4782 15.7793C20.4782 15.5218 20.2702 15.313 20.0116 15.313V17.1692C19.2442 17.1692 18.622 16.5461 18.622 15.7793H20.4782ZM20.0116 15.313C19.8898 15.313 19.7697 15.3623 19.6824 15.4494L20.9937 16.7631C20.7326 17.0238 20.3809 17.1692 20.0116 17.1692V15.313ZM19.6818 15.45C19.5934 15.5384 19.5449 15.659 19.5449 15.7793H21.4011C21.4011 16.1468 21.2572 16.4997 20.9943 16.7625L19.6818 15.45ZM19.5449 15.7792L19.5451 10.3677L21.4013 10.3678L21.4011 15.7793L19.5449 15.7792ZM19.5451 10.3678C19.5451 8.99103 18.5441 8.02256 17.4952 8.02256V6.16637C19.7306 6.16637 21.4013 8.13505 21.4013 10.3678H19.5451ZM16.6029 6.8395L16.6029 6.83944L18.3876 7.34938L18.3876 7.34943L16.6029 6.8395Z" fill="#4CAF4F" mask="url(#path-1-inside-1_211_2338)"/>
<path d="M8.63135 18.5526L8.57959 18.5252C8.56732 18.5473 8.53287 18.6093 8.48193 18.701C8.50002 18.71 8.51834 18.7176 8.53662 18.7245C8.56777 18.6683 8.599 18.6109 8.63135 18.5526Z" fill="#4CAF4F" stroke="#4CAF4F" stroke-width="0.928093"/>
<mask id="path-4-inside-2_211_2338" fill="white">
<path d="M27.8818 25.8226C27.3985 26.6286 26.6037 27.1803 25.6435 27.3764C24.6919 27.5704 23.691 27.3915 22.8248 26.8721L18.1841 24.0882C17.9583 23.9527 17.7985 23.7376 17.7346 23.482C17.6711 23.227 17.7108 22.9622 17.8461 22.7365C17.9306 22.5955 18.049 22.4843 18.1862 22.4022L18.1849 22.4013C17.9591 22.2659 17.7994 22.0507 17.7357 21.7955C17.6718 21.5404 17.7115 21.2753 17.8469 21.0494C17.9342 20.9043 18.0537 20.7908 18.1902 20.7102C17.9921 20.574 17.8494 20.376 17.7907 20.1412C17.7267 19.8858 17.7664 19.621 17.9019 19.3953C18.0372 19.1695 18.2525 19.0099 18.5077 18.9462C18.5874 18.9262 18.6682 18.9163 18.7482 18.9163C18.9054 18.9165 19.0595 18.9563 19.2012 19.0305C19.2099 18.8469 19.2645 18.6667 19.3717 18.5121C19.6658 18.0878 20.2548 17.9704 20.7137 18.2457L24.5139 20.5252L24.0241 19.6429C23.8361 19.3061 23.843 18.8905 24.0423 18.5583C24.1394 18.3966 24.2781 18.2623 24.4439 18.1693C24.5802 18.0939 24.7278 18.0581 24.8734 18.0581C25.1861 18.0583 25.4898 18.2233 25.6515 18.5153C26.215 19.5306 27.2783 21.4454 27.3531 21.5791C27.369 21.6022 27.417 21.6711 27.4582 21.7296C27.4974 21.7852 27.5397 21.8383 27.5835 21.8911C28.5324 23.0414 28.6468 24.5476 27.8818 25.8226L27.8818 25.8226ZM27.1795 22.2249C27.1273 22.1618 27.0761 22.0973 27.0296 22.0309C26.8879 21.8298 26.8843 21.8246 26.8736 21.7719C26.708 21.4979 26.3039 20.7705 25.1932 18.7694C25.0958 18.5938 24.8744 18.5296 24.6981 18.627C24.6114 18.6756 24.5417 18.7433 24.4908 18.8281C24.3878 18.9998 24.3839 19.2143 24.4811 19.3885L25.4451 21.1253C25.5027 21.229 25.4835 21.3582 25.3984 21.4405C25.3134 21.523 25.1835 21.5374 25.0815 21.4768L20.4442 18.6948C20.2256 18.5637 19.9375 18.6151 19.8023 18.8102C19.7246 18.9224 19.6998 19.0562 19.7323 19.1869C19.7621 19.3063 19.8371 19.407 19.9432 19.4706C19.9435 19.4708 19.9437 19.4711 19.944 19.4713L22.9761 21.2903C23.1001 21.3647 23.1402 21.5254 23.0658 21.6496C22.9913 21.7734 22.8308 21.8139 22.7065 21.7393L18.984 19.5062C18.8784 19.4429 18.7541 19.4242 18.6347 19.4542C18.515 19.4841 18.4143 19.5589 18.3508 19.665C18.2872 19.7707 18.2688 19.8949 18.2984 20.0143C18.3282 20.1337 18.4031 20.2345 18.5091 20.2981L19.2334 20.7326L22.2314 22.5312C22.3554 22.6057 22.3955 22.7664 22.3211 22.8906C22.2466 23.0144 22.0861 23.0547 21.9618 22.9803L18.9291 21.1608C18.711 21.0296 18.4269 21.1007 18.2957 21.3192C18.2321 21.4251 18.2137 21.5493 18.2433 21.6686C18.2731 21.788 18.348 21.8887 18.4542 21.9525L19.1977 22.3986L21.4869 23.772C21.6108 23.8465 21.651 24.0072 21.5766 24.1313C21.5021 24.2551 21.3416 24.2958 21.2172 24.221L18.9281 22.8476C18.8225 22.7843 18.6987 22.7656 18.5786 22.7956C18.4592 22.8254 18.3582 22.9002 18.2948 23.006C18.2313 23.1119 18.2128 23.2362 18.2423 23.3555C18.2721 23.4748 18.3471 23.5755 18.4532 23.6393L23.0939 26.4232C23.8469 26.8751 24.7154 27.0315 25.5384 26.8636C26.3527 26.6973 27.0254 26.232 27.4325 25.5534C28.0902 24.4576 27.9956 23.2133 27.1798 22.2249L27.1795 22.2249Z"/>
</mask>
<path d="M27.8818 25.8226C27.3985 26.6286 26.6037 27.1803 25.6435 27.3764C24.6919 27.5704 23.691 27.3915 22.8248 26.8721L18.1841 24.0882C17.9583 23.9527 17.7985 23.7376 17.7346 23.482C17.6711 23.227 17.7108 22.9622 17.8461 22.7365C17.9306 22.5955 18.049 22.4843 18.1862 22.4022L18.1849 22.4013C17.9591 22.2659 17.7994 22.0507 17.7357 21.7955C17.6718 21.5404 17.7115 21.2753 17.8469 21.0494C17.9342 20.9043 18.0537 20.7908 18.1902 20.7102C17.9921 20.574 17.8494 20.376 17.7907 20.1412C17.7267 19.8858 17.7664 19.621 17.9019 19.3953C18.0372 19.1695 18.2525 19.0099 18.5077 18.9462C18.5874 18.9262 18.6682 18.9163 18.7482 18.9163C18.9054 18.9165 19.0595 18.9563 19.2012 19.0305C19.2099 18.8469 19.2645 18.6667 19.3717 18.5121C19.6658 18.0878 20.2548 17.9704 20.7137 18.2457L24.5139 20.5252L24.0241 19.6429C23.8361 19.3061 23.843 18.8905 24.0423 18.5583C24.1394 18.3966 24.2781 18.2623 24.4439 18.1693C24.5802 18.0939 24.7278 18.0581 24.8734 18.0581C25.1861 18.0583 25.4898 18.2233 25.6515 18.5153C26.215 19.5306 27.2783 21.4454 27.3531 21.5791C27.369 21.6022 27.417 21.6711 27.4582 21.7296C27.4974 21.7852 27.5397 21.8383 27.5835 21.8911C28.5324 23.0414 28.6468 24.5476 27.8818 25.8226L27.8818 25.8226ZM27.1795 22.2249C27.1273 22.1618 27.0761 22.0973 27.0296 22.0309C26.8879 21.8298 26.8843 21.8246 26.8736 21.7719C26.708 21.4979 26.3039 20.7705 25.1932 18.7694C25.0958 18.5938 24.8744 18.5296 24.6981 18.627C24.6114 18.6756 24.5417 18.7433 24.4908 18.8281C24.3878 18.9998 24.3839 19.2143 24.4811 19.3885L25.4451 21.1253C25.5027 21.229 25.4835 21.3582 25.3984 21.4405C25.3134 21.523 25.1835 21.5374 25.0815 21.4768L20.4442 18.6948C20.2256 18.5637 19.9375 18.6151 19.8023 18.8102C19.7246 18.9224 19.6998 19.0562 19.7323 19.1869C19.7621 19.3063 19.8371 19.407 19.9432 19.4706C19.9435 19.4708 19.9437 19.4711 19.944 19.4713L22.9761 21.2903C23.1001 21.3647 23.1402 21.5254 23.0658 21.6496C22.9913 21.7734 22.8308 21.8139 22.7065 21.7393L18.984 19.5062C18.8784 19.4429 18.7541 19.4242 18.6347 19.4542C18.515 19.4841 18.4143 19.5589 18.3508 19.665C18.2872 19.7707 18.2688 19.8949 18.2984 20.0143C18.3282 20.1337 18.4031 20.2345 18.5091 20.2981L19.2334 20.7326L22.2314 22.5312C22.3554 22.6057 22.3955 22.7664 22.3211 22.8906C22.2466 23.0144 22.0861 23.0547 21.9618 22.9803L18.9291 21.1608C18.711 21.0296 18.4269 21.1007 18.2957 21.3192C18.2321 21.4251 18.2137 21.5493 18.2433 21.6686C18.2731 21.788 18.348 21.8887 18.4542 21.9525L19.1977 22.3986L21.4869 23.772C21.6108 23.8465 21.651 24.0072 21.5766 24.1313C21.5021 24.2551 21.3416 24.2958 21.2172 24.221L18.9281 22.8476C18.8225 22.7843 18.6987 22.7656 18.5786 22.7956C18.4592 22.8254 18.3582 22.9002 18.2948 23.006C18.2313 23.1119 18.2128 23.2362 18.2423 23.3555C18.2721 23.4748 18.3471 23.5755 18.4532 23.6393L23.0939 26.4232C23.8469 26.8751 24.7154 27.0315 25.5384 26.8636C26.3527 26.6973 27.0254 26.232 27.4325 25.5534C28.0902 24.4576 27.9956 23.2133 27.1798 22.2249L27.1795 22.2249Z" fill="#4CAF4F"/>
<path d="M27.8818 25.8226L27.5824 24.9441L29.981 24.1264L28.6778 26.2998L27.8818 25.8226ZM25.6435 27.3764L25.8293 28.2857L25.8289 28.2858L25.6435 27.3764ZM22.8248 26.8721L22.3475 27.6681L22.3474 27.668L22.8248 26.8721ZM18.1841 24.0882L18.6615 23.2923L18.6615 23.2923L18.1841 24.0882ZM17.7346 23.482L16.8343 23.7074L16.834 23.7062L17.7346 23.482ZM17.8461 22.7365L18.6423 23.2133L18.6421 23.2138L17.8461 22.7365ZM18.1862 22.4022L18.6781 21.6151L19.9647 22.4193L18.6629 23.1985L18.1862 22.4022ZM18.1849 22.4013L18.6623 21.6055L18.6696 21.6098L18.6768 21.6143L18.1849 22.4013ZM17.7357 21.7955L18.636 21.5699L18.6363 21.571L17.7357 21.7955ZM17.8469 21.0494L17.0509 20.5722L17.0515 20.5712L17.8469 21.0494ZM18.1902 20.7102L18.7162 19.9456L19.9148 20.7702L18.6618 21.5095L18.1902 20.7102ZM17.7907 20.1412L18.691 19.9157L18.6911 19.9161L17.7907 20.1412ZM17.9019 19.3953L18.698 19.8723L18.6976 19.873L17.9019 19.3953ZM18.5077 18.9462L18.7336 19.8463L18.7327 19.8466L18.5077 18.9462ZM18.7482 18.9163V17.9882L18.7492 17.9882L18.7482 18.9163ZM19.2012 19.0305L20.1282 19.0744L20.0594 20.5269L18.771 19.8528L19.2012 19.0305ZM19.3717 18.5121L20.1345 19.0408L20.1344 19.0409L19.3717 18.5121ZM20.7137 18.2457L20.2363 19.0416L20.2362 19.0416L20.7137 18.2457ZM24.5139 20.5252L25.3253 20.0747L27.0064 23.1025L24.0365 21.3211L24.5139 20.5252ZM24.0241 19.6429L24.8345 19.1907L24.8355 19.1924L24.0241 19.6429ZM24.0423 18.5583L23.2463 18.081L23.2466 18.0806L24.0423 18.5583ZM24.4439 18.1693L23.9899 17.3598L23.9944 17.3573L24.4439 18.1693ZM24.8734 18.0581V17.13L24.8739 17.13L24.8734 18.0581ZM25.6515 18.5153L24.84 18.9657L24.8395 18.9648L25.6515 18.5153ZM27.3531 21.5791L26.5885 22.1051L26.5641 22.0697L26.5431 22.0321L27.3531 21.5791ZM27.4582 21.7296L26.6997 22.2644L26.699 22.2634L27.4582 21.7296ZM27.5835 21.8911L28.2979 21.2988L28.2994 21.3005L27.5835 21.8911ZM27.8818 25.8226L28.1813 26.701L25.7814 27.5192L27.086 25.345L27.8818 25.8226ZM27.1795 22.2249L27.2714 23.1484L26.779 23.1974L26.4639 22.8159L27.1795 22.2249ZM27.0296 22.0309L27.7882 21.4963L27.7894 21.498L27.0296 22.0309ZM26.8736 21.7719L27.6679 21.2919L27.7513 21.4298L27.7832 21.5878L26.8736 21.7719ZM25.1932 18.7694L24.3817 19.2198L24.3816 19.2195L25.1932 18.7694ZM24.6981 18.627L24.2449 17.8171L24.2492 17.8147L24.6981 18.627ZM24.4908 18.8281L25.2868 19.3054L25.2867 19.3055L24.4908 18.8281ZM24.4811 19.3885L25.2915 18.936L25.2926 18.9381L24.4811 19.3885ZM25.4451 21.1253L24.6337 21.5759L24.6336 21.5757L25.4451 21.1253ZM25.3984 21.4405L24.7518 20.7747L24.7531 20.7734L25.3984 21.4405ZM25.0815 21.4768L24.607 22.2744L24.6041 22.2726L25.0815 21.4768ZM20.4442 18.6948L20.9213 17.8987L20.9216 17.8989L20.4442 18.6948ZM19.8023 18.8102L20.5653 19.3386L20.5651 19.3389L19.8023 18.8102ZM19.7323 19.1869L18.8319 19.412L18.8316 19.4107L19.7323 19.1869ZM19.9432 19.4706L19.528 20.3007L19.4963 20.2848L19.4659 20.2666L19.9432 19.4706ZM19.944 19.4713L20.3591 18.6412L20.391 18.6571L20.4215 18.6754L19.944 19.4713ZM22.9761 21.2903L23.4535 20.4944L23.4539 20.4946L22.9761 21.2903ZM23.0658 21.6496L23.8617 22.1269L23.8612 22.1279L23.0658 21.6496ZM22.7065 21.7393L23.1839 20.9434L23.1841 20.9436L22.7065 21.7393ZM18.984 19.5062L19.4611 18.7102L19.4614 18.7103L18.984 19.5062ZM18.6347 19.4542L18.861 20.3543L18.8592 20.3548L18.6347 19.4542ZM18.3508 19.665L19.1473 20.1414L19.1461 20.1434L18.3508 19.665ZM18.2984 20.0143L17.398 20.2394L17.3974 20.237L18.2984 20.0143ZM18.5091 20.2981L18.0317 21.0941L18.0312 21.0937L18.5091 20.2981ZM19.2334 20.7326L19.7108 19.9366L19.7109 19.9367L19.2334 20.7326ZM22.2314 22.5312L22.7089 21.7354L22.7092 21.7356L22.2314 22.5312ZM22.3211 22.8906L23.117 23.3679L23.1165 23.3688L22.3211 22.8906ZM21.9618 22.9803L21.4849 23.7764L21.4843 23.7761L21.9618 22.9803ZM18.9291 21.1608L18.4516 21.9566L18.4507 21.9561L18.9291 21.1608ZM18.2957 21.3192L19.0914 21.797L19.0914 21.797L18.2957 21.3192ZM18.2433 21.6686L17.3429 21.8937L17.3423 21.8914L18.2433 21.6686ZM18.4542 21.9525L17.9767 22.7484L17.9759 22.7479L18.4542 21.9525ZM19.1977 22.3986L19.6751 21.6027L19.6752 21.6027L19.1977 22.3986ZM21.4869 23.772L21.9643 22.9762L21.9647 22.9764L21.4869 23.772ZM21.5766 24.1313L22.3725 24.6087L22.3719 24.6096L21.5766 24.1313ZM21.2172 24.221L21.6947 23.4252L21.6957 23.4258L21.2172 24.221ZM18.9281 22.8476L19.4052 22.0515L19.4056 22.0517L18.9281 22.8476ZM18.5786 22.7956L18.3535 21.8952L18.3535 21.8952L18.5786 22.7956ZM18.2948 23.006L17.4986 22.529L17.4989 22.5285L18.2948 23.006ZM18.2423 23.3555L17.3419 23.5806L17.3414 23.5785L18.2423 23.3555ZM18.4532 23.6393L17.9757 24.4352L17.9749 24.4347L18.4532 23.6393ZM23.0939 26.4232L23.5713 25.6274L23.5713 25.6274L23.0939 26.4232ZM25.5384 26.8636L25.724 27.7729L25.7239 27.7729L25.5384 26.8636ZM27.4325 25.5534L26.6366 25.076L26.6367 25.0758L27.4325 25.5534ZM27.1798 22.2249L27.0878 21.3013L27.5804 21.2523L27.8955 21.6341L27.1798 22.2249ZM28.6778 26.2998C28.0543 27.3397 27.032 28.04 25.8293 28.2857L25.4578 26.4671C26.1754 26.3205 26.7428 25.9174 27.0859 25.3453L28.6778 26.2998ZM25.8289 28.2858C24.6403 28.5281 23.4041 28.3016 22.3475 27.6681L23.302 26.0761C23.9779 26.4814 24.7434 26.6127 25.4581 26.467L25.8289 28.2858ZM22.3474 27.668L17.7067 24.8841L18.6615 23.2923L23.3022 26.0762L22.3474 27.668ZM17.7067 24.8841C17.2702 24.6223 16.9581 24.2021 16.8343 23.7074L18.6349 23.2567C18.6374 23.2668 18.6409 23.273 18.644 23.2772C18.6472 23.2814 18.6523 23.2868 18.6615 23.2923L17.7067 24.8841ZM16.834 23.7062C16.711 23.2122 16.7888 22.6952 17.0501 22.2593L18.6421 23.2138C18.6365 23.223 18.6345 23.2303 18.6337 23.2356C18.6329 23.241 18.6328 23.2481 18.6352 23.2579L16.834 23.7062ZM17.0499 22.2597C17.2219 21.9723 17.4571 21.7569 17.7096 21.6058L18.6629 23.1985C18.6516 23.2053 18.6456 23.2105 18.6431 23.2129C18.641 23.215 18.6413 23.2151 18.6423 23.2133L17.0499 22.2597ZM17.6943 23.1892L17.693 23.1884L18.6768 21.6143L18.6781 21.6151L17.6943 23.1892ZM17.7075 23.1972C17.2713 22.9355 16.9587 22.5153 16.8352 22.02L18.6363 21.571C18.6386 21.5805 18.6419 21.5864 18.6449 21.5904C18.648 21.5945 18.6531 21.5999 18.6623 21.6055L17.7075 23.1972ZM16.8355 22.0212C16.7114 21.526 16.7895 21.0083 17.0509 20.5722L18.6429 21.5266C18.6373 21.5361 18.6353 21.5433 18.6345 21.5485C18.6337 21.5536 18.6336 21.5604 18.636 21.5699L16.8355 22.0212ZM17.0515 20.5712C17.2228 20.2862 17.457 20.0653 17.7185 19.911L18.6618 21.5095C18.6558 21.5131 18.6517 21.5165 18.649 21.5191C18.6465 21.5216 18.6444 21.5242 18.6424 21.5275L17.0515 20.5712ZM17.6642 21.4749C17.2893 21.217 17.0066 20.8316 16.8903 20.3663L18.6911 19.9161C18.6922 19.9205 18.6936 19.9236 18.696 19.927C18.6986 19.9307 18.7044 19.9375 18.7162 19.9456L17.6642 21.4749ZM16.8904 20.3667C16.7664 19.8716 16.8443 19.3539 17.1061 18.9177L18.6976 19.873C18.6921 19.8822 18.6902 19.8892 18.6894 19.8941C18.6887 19.8991 18.6885 19.906 18.691 19.9157L16.8904 20.3667ZM17.1057 18.9183C17.3677 18.4811 17.7885 18.1693 18.2826 18.0458L18.7327 19.8466C18.7228 19.849 18.7166 19.8525 18.7125 19.8555C18.7084 19.8586 18.7033 19.8635 18.698 19.8723L17.1057 18.9183ZM18.2817 18.046C18.4354 18.0074 18.5922 17.9882 18.7482 17.9882V19.8444C18.7442 19.8444 18.7393 19.8449 18.7336 19.8463L18.2817 18.046ZM18.7492 17.9882C19.0645 17.9886 19.3651 18.0688 19.6314 18.2081L18.771 19.8528C18.7621 19.8482 18.7558 19.8461 18.7523 19.8453C18.7489 19.8444 18.7474 19.8444 18.7473 19.8444L18.7492 17.9882ZM18.2741 18.9865C18.2901 18.649 18.3919 18.2964 18.6091 17.9832L20.1344 19.0409C20.1371 19.0371 20.1296 19.0449 20.1282 19.0744L18.2741 18.9865ZM18.609 17.9834C19.1968 17.1352 20.3365 16.9371 21.1912 17.4499L20.2362 19.0416C20.2091 19.0253 20.1826 19.0227 20.1618 19.0269C20.1415 19.0309 20.1359 19.0388 20.1345 19.0408L18.609 17.9834ZM21.1911 17.4498L24.9913 19.7293L24.0365 21.3211L20.2363 19.0416L21.1911 17.4498ZM23.7025 20.9757L23.2126 20.0934L24.8355 19.1924L25.3253 20.0747L23.7025 20.9757ZM23.2136 20.0951C22.863 19.4668 22.877 18.6968 23.2463 18.081L24.8382 19.0356C24.809 19.0843 24.8092 19.1454 24.8345 19.1907L23.2136 20.0951ZM23.2466 18.0806C23.4276 17.7791 23.6847 17.531 23.9899 17.3598L24.8979 18.9788C24.8715 18.9936 24.8511 19.0141 24.838 19.036L23.2466 18.0806ZM23.9944 17.3573C24.2721 17.2036 24.575 17.13 24.8734 17.13V18.9862C24.8766 18.9862 24.8802 18.9858 24.8841 18.9848C24.8882 18.9838 24.8914 18.9824 24.8934 18.9813L23.9944 17.3573ZM24.8739 17.13C25.5081 17.1304 26.1309 17.465 26.4635 18.0659L24.8395 18.9648C24.841 18.9674 24.8434 18.9709 24.8468 18.9744C24.8501 18.9776 24.8534 18.9801 24.8564 18.9818C24.8616 18.9848 24.8669 18.9862 24.8729 18.9862L24.8739 17.13ZM26.463 18.065C27.0272 19.0815 28.0893 20.9941 28.1631 21.126L26.5431 22.0321C26.4673 21.8967 25.4028 19.9798 24.84 18.9657L26.463 18.065ZM28.1177 21.053C28.1308 21.0721 28.1766 21.1378 28.2174 21.1958L26.699 22.2634C26.6574 22.2043 26.6072 22.1323 26.5885 22.1051L28.1177 21.053ZM28.2167 21.1948C28.2359 21.2221 28.261 21.2542 28.2979 21.2988L26.869 22.4835C26.8184 22.4225 26.7589 22.3484 26.6997 22.2644L28.2167 21.1948ZM28.2994 21.3005C29.4974 22.7527 29.6457 24.6867 28.6776 26.3001L27.086 25.345C27.6479 24.4086 27.5674 23.3301 26.8676 22.4818L28.2994 21.3005ZM27.5823 24.9441L27.5824 24.9441L28.1813 26.701L28.1813 26.701L27.5823 24.9441ZM26.4639 22.8159C26.4052 22.7449 26.3366 22.6591 26.2697 22.5638L27.7894 21.498C27.8157 21.5355 27.8494 21.5786 27.895 21.6339L26.4639 22.8159ZM26.2709 22.5655C26.2125 22.4826 26.1497 22.3946 26.108 22.3256C26.0801 22.2794 26.0428 22.212 26.0113 22.1262C25.9806 22.0426 25.967 21.9709 25.964 21.9561L27.7832 21.5878C27.7856 21.5993 27.7764 21.5481 27.7538 21.4865C27.7304 21.4227 27.7048 21.3791 27.6969 21.3659C27.6931 21.3597 27.6917 21.3577 27.6946 21.3621C27.6974 21.3663 27.7023 21.3736 27.7107 21.3857C27.728 21.4108 27.7518 21.4445 27.7882 21.4963L26.2709 22.5655ZM26.0793 22.252C25.902 21.9587 25.4847 21.2069 24.3817 19.2198L26.0047 18.319C27.1232 20.334 27.5139 21.0372 27.6679 21.2919L26.0793 22.252ZM24.3816 19.2195C24.5319 19.4905 24.874 19.5902 25.147 19.4394L24.2492 17.8147C24.8748 17.469 25.6597 17.697 26.0048 18.3192L24.3816 19.2195ZM25.1513 19.437C25.2058 19.4065 25.2543 19.3595 25.2868 19.3054L23.6948 18.3509C23.829 18.1271 24.0169 17.9447 24.2449 17.8171L25.1513 19.437ZM25.2867 19.3055C25.3532 19.1947 25.3577 19.0546 25.2915 18.936L23.6708 19.8409C23.4101 19.374 23.4225 18.8049 23.6949 18.3507L25.2867 19.3055ZM25.2926 18.9381L26.2566 20.6749L24.6336 21.5757L23.6697 19.8389L25.2926 18.9381ZM26.2565 20.6747C26.5178 21.1452 26.431 21.7329 26.0436 22.1076L24.7531 20.7734C24.536 20.9834 24.4876 21.3127 24.6337 21.5759L26.2565 20.6747ZM26.0449 22.1063C25.6545 22.4855 25.0641 22.5463 24.607 22.2744L25.556 20.6791C25.303 20.5286 24.9724 20.5605 24.7518 20.7747L26.0449 22.1063ZM24.6041 22.2726L19.9667 19.4906L20.9216 17.8989L25.559 20.6809L24.6041 22.2726ZM19.967 19.4908C20.0576 19.5451 20.1598 19.5609 20.2558 19.5437C20.3517 19.5265 20.4755 19.4683 20.5653 19.3386L19.0393 18.2818C19.4861 17.6367 20.3354 17.5475 20.9213 17.8987L19.967 19.4908ZM20.5651 19.3389C20.6376 19.2343 20.6656 19.0945 20.633 18.9632L18.8316 19.4107C18.734 19.018 18.8116 18.6105 19.0395 18.2816L20.5651 19.3389ZM20.6327 18.9618C20.6023 18.8403 20.5237 18.7366 20.4205 18.6747L19.4659 20.2666C19.1505 20.0774 18.922 19.7723 18.8319 19.412L20.6327 18.9618ZM20.3583 18.6406C20.4422 18.6825 20.5039 18.7292 20.5429 18.7623C20.5621 18.7785 20.577 18.7924 20.5859 18.801C20.5905 18.8054 20.5941 18.809 20.5963 18.8112C20.5975 18.8123 20.5984 18.8132 20.5989 18.8138C20.5992 18.8141 20.5995 18.8143 20.5996 18.8144C20.5997 18.8145 20.5997 18.8146 20.5998 18.8146C20.5998 18.8146 20.5998 18.8146 20.5998 18.8146C20.5998 18.8146 20.5998 18.8146 20.5998 18.8146C20.5998 18.8146 20.5998 18.8147 20.5998 18.8147C20.6001 18.815 20.5984 18.8133 20.5964 18.8113C20.5943 18.8091 20.5906 18.8056 20.5861 18.8012C20.5772 18.7927 20.5624 18.7788 20.5433 18.7626C20.5044 18.7297 20.4428 18.6831 20.3591 18.6412L19.5289 20.3013C19.445 20.2594 19.3833 20.2127 19.3443 20.1796C19.3251 20.1634 19.3102 20.1495 19.3013 20.1409C19.2967 20.1365 19.2931 20.1329 19.2908 20.1307C19.2897 20.1296 19.2888 20.1287 19.2882 20.1281C19.288 20.1278 19.2877 20.1276 19.2876 20.1275C19.2875 20.1274 19.2875 20.1273 19.2874 20.1273C19.2874 20.1273 19.2874 20.1273 19.2874 20.1273C19.2874 20.1273 19.2874 20.1272 19.2874 20.1272C19.2874 20.1272 19.2874 20.1272 19.2874 20.1272C19.2871 20.1269 19.2888 20.1286 19.2907 20.1306C19.2929 20.1328 19.2965 20.1363 19.3011 20.1407C19.31 20.1492 19.3248 20.1631 19.3439 20.1793C19.3828 20.2122 19.4444 20.2588 19.528 20.3007L20.3583 18.6406ZM20.4215 18.6754L23.4535 20.4944L22.4986 22.0861L19.4666 20.2671L20.4215 18.6754ZM23.4539 20.4946C24.0173 20.833 24.1996 21.5636 23.8617 22.1269L22.2699 21.1722C22.0809 21.4873 22.1828 21.8965 22.4983 22.0859L23.4539 20.4946ZM23.8612 22.1279C23.5236 22.6891 22.7939 22.8742 22.2288 22.535L23.1841 20.9436C22.8677 20.7536 22.459 20.8576 22.2704 21.1713L23.8612 22.1279ZM22.229 22.5352L18.5066 20.3021L19.4614 18.7103L23.1839 20.9434L22.229 22.5352ZM18.5069 20.3023C18.6111 20.3648 18.7397 20.3848 18.861 20.3543L18.4085 18.5541C18.7685 18.4636 19.1457 18.5211 19.4611 18.7102L18.5069 20.3023ZM18.8592 20.3548C18.9797 20.3247 19.0845 20.2464 19.1473 20.1414L17.5543 19.1885C17.7441 18.8713 18.0502 18.6434 18.4102 18.5537L18.8592 20.3548ZM19.1461 20.1434C19.2099 20.0374 19.2284 19.9092 19.1993 19.7915L17.3974 20.237C17.3092 19.8805 17.3645 19.5041 17.5555 19.1866L19.1461 20.1434ZM19.1987 19.7892C19.1685 19.6683 19.0904 19.5647 18.9869 19.5025L18.0312 21.0937C17.7158 20.9043 17.4879 20.599 17.398 20.2394L19.1987 19.7892ZM18.9864 19.5022L19.7108 19.9366L18.7561 21.5285L18.0317 21.0941L18.9864 19.5022ZM19.7109 19.9367L22.7089 21.7354L21.7539 23.3271L18.756 21.5284L19.7109 19.9367ZM22.7092 21.7356C23.2726 22.0739 23.4549 22.8045 23.117 23.3679L21.5252 22.4132C21.3362 22.7283 21.4381 23.1375 21.7536 23.3269L22.7092 21.7356ZM23.1165 23.3688C22.7784 23.931 22.0488 24.1142 21.4849 23.7764L22.4387 22.1841C22.1234 21.9952 21.7149 22.0977 21.5257 22.4123L23.1165 23.3688ZM21.4843 23.7761L18.4516 21.9566L19.4066 20.3649L22.4393 22.1844L21.4843 23.7761ZM18.4507 21.9561C18.6736 22.0901 18.9594 22.0167 19.0914 21.797L17.5001 20.8413C17.8944 20.1848 18.7484 19.969 19.4075 20.3654L18.4507 21.9561ZM19.0914 21.797C19.1546 21.6917 19.1734 21.5638 19.1442 21.4459L17.3423 21.8914C17.2541 21.5347 17.3096 21.1585 17.5001 20.8413L19.0914 21.797ZM19.1436 21.4435C19.1132 21.3219 19.0347 21.2186 18.9324 21.1571L17.9759 22.7479C17.6614 22.5588 17.433 22.2542 17.3429 21.8937L19.1436 21.4435ZM18.9316 21.1566L19.6751 21.6027L18.7202 23.1944L17.9767 22.7484L18.9316 21.1566ZM19.6752 21.6027L21.9643 22.9762L21.0094 24.5678L18.7202 23.1944L19.6752 21.6027ZM21.9647 22.9764C22.5281 23.3147 22.7104 24.0453 22.3725 24.6087L20.7806 23.654C20.5917 23.969 20.6936 24.3782 21.009 24.5677L21.9647 22.9764ZM22.3719 24.6096C22.0349 25.17 21.3051 25.357 20.7388 25.0163L21.6957 23.4258C21.378 23.2346 20.9693 23.3403 20.7812 23.653L22.3719 24.6096ZM20.7398 25.0169L18.4506 23.6434L19.4056 22.0517L21.6947 23.4252L20.7398 25.0169ZM18.451 23.6436C18.5555 23.7063 18.6841 23.7259 18.8037 23.696L18.3535 21.8952C18.7132 21.8053 19.0895 21.8623 19.4052 22.0515L18.451 23.6436ZM18.8037 23.696C18.9231 23.6661 19.0274 23.5888 19.0906 23.4835L17.4989 22.5285C17.689 22.2117 17.9953 21.9848 18.3535 21.8952L18.8037 23.696ZM19.0909 23.4829C19.1533 23.3788 19.1727 23.2515 19.1432 23.1324L17.3414 23.5785C17.2529 23.2209 17.3093 22.845 17.4986 22.529L19.0909 23.4829ZM19.1427 23.1304C19.1122 23.0087 19.0337 22.9055 18.9314 22.8439L17.9749 24.4347C17.6604 24.2456 17.432 23.941 17.3419 23.5805L19.1427 23.1304ZM18.9306 22.8435L23.5713 25.6274L22.6164 27.2191L17.9757 24.4352L18.9306 22.8435ZM23.5713 25.6274C24.1353 25.9658 24.7684 26.0734 25.3528 25.9542L25.7239 27.7729C24.6624 27.9895 23.5585 27.7843 22.6164 27.2191L23.5713 25.6274ZM25.3527 25.9542C25.9266 25.837 26.3709 25.519 26.6366 25.076L28.2284 26.0308C27.68 26.945 26.7788 27.5575 25.724 27.7729L25.3527 25.9542ZM26.6367 25.0758C27.0913 24.3185 27.0306 23.5021 26.464 22.8157L27.8955 21.6341C28.9606 22.9244 29.0892 24.5967 28.2282 26.0311L26.6367 25.0758ZM27.2717 23.1484L27.2714 23.1484L27.0875 21.3014L27.0878 21.3013L27.2717 23.1484Z" fill="#4CAF4F" mask="url(#path-4-inside-2_211_2338)"/>
</svg>
