<svg width="34" height="34" viewBox="0 0 34 34" fill="none" xmlns="http://www.w3.org/2000/svg">
<path d="M7.09131 5.71716H26.9292C28.0829 5.71716 29.1895 6.17588 30.0054 6.99158C30.8212 7.80739 31.2797 8.91402 31.2798 10.0677V23.641C31.2798 24.7948 30.8212 25.9013 30.0054 26.7172C29.1895 27.533 28.083 27.9916 26.9292 27.9916H7.09131C5.93758 27.9915 4.83095 27.533 4.01514 26.7172C3.19945 25.9013 2.74072 24.7947 2.74072 23.641V10.0677C2.74078 8.91402 3.19933 7.80739 4.01514 6.99158C4.83095 6.17577 5.93758 5.71722 7.09131 5.71716ZM4.1333 23.641C4.1333 24.4254 4.4449 25.178 4.99951 25.7328C5.55425 26.2875 6.3068 26.5999 7.09131 26.6H26.9292C27.7138 26.6 28.4662 26.2876 29.021 25.7328C29.5758 25.178 29.8882 24.4256 29.8882 23.641V13.3744H4.1333V23.641ZM22.231 20.3353H25.3638C25.5482 20.3354 25.7255 20.408 25.856 20.5385C25.9864 20.6689 26.059 20.8462 26.0591 21.0306C26.0591 21.2151 25.9862 21.3923 25.856 21.5228C25.7255 21.6533 25.5482 21.7268 25.3638 21.7269H22.231C22.0464 21.7269 21.8693 21.6533 21.7388 21.5228C21.6084 21.3923 21.5347 21.2151 21.5347 21.0306C21.5348 20.8462 21.6083 20.6689 21.7388 20.5385C21.8693 20.408 22.0465 20.3354 22.231 20.3353ZM7.09131 7.10974C6.3068 7.1098 5.55425 7.42122 4.99951 7.97595C4.44478 8.53069 4.13336 9.28324 4.1333 10.0677V11.9818H29.8882V10.0677C29.8881 9.28324 29.5757 8.53069 29.021 7.97595C28.4662 7.42133 27.7137 7.10974 26.9292 7.10974H7.09131Z" fill="#4CAF4F" stroke="#4CAF4F" stroke-width="0.696069"/>
</svg>
