<svg width="34" height="34" viewBox="0 0 34 34" fill="none" xmlns="http://www.w3.org/2000/svg">
<g clip-path="url(#clip0_211_2056)">
<path d="M31.7852 9.70105C31.7852 9.72458 31.7852 9.754 31.779 9.77166C31.7484 10.0011 31.7484 10.2306 31.7667 10.466C31.779 10.5248 31.7913 10.5837 31.8403 10.6308C31.92 10.719 32.0426 10.7014 32.0917 10.5954C32.1162 10.5425 32.1162 10.4895 32.1039 10.4366C32.0426 10.213 32.0304 9.9776 32.0243 9.74812C32.0243 9.73635 32.0243 9.7187 32.0243 9.70105C32.0917 9.69516 32.153 9.68928 32.2082 9.68928C32.2511 9.68339 32.2879 9.67751 32.3186 9.65985C32.4105 9.61278 32.4105 9.51275 32.3124 9.46568C32.2756 9.44802 32.2266 9.44214 32.1837 9.44214C32.0304 9.44802 31.8771 9.44802 31.7238 9.44802C31.6687 9.44802 31.6135 9.45391 31.5583 9.45979C31.5276 9.46568 31.4909 9.46568 31.4664 9.48333C31.4234 9.50098 31.3989 9.5304 31.3989 9.57159C31.405 9.61278 31.4234 9.63632 31.4664 9.65397C31.4909 9.67163 31.5215 9.67751 31.5522 9.67751C31.6257 9.68339 31.7055 9.69516 31.7852 9.70105ZM33.4711 9.97172C33.4711 9.9776 33.4772 9.98349 33.4772 9.98349C33.5018 10.1424 33.5263 10.2954 33.5447 10.4483C33.5508 10.5013 33.557 10.5484 33.5937 10.5896C33.6734 10.6896 33.7961 10.6778 33.8512 10.5719C33.8758 10.5189 33.8819 10.466 33.8696 10.4071C33.8328 10.2306 33.8144 10.0541 33.7777 9.88346C33.7531 9.77754 33.7225 9.67751 33.6918 9.58336C33.6734 9.52452 33.6305 9.48333 33.557 9.47745C33.4834 9.46568 33.4282 9.50098 33.3975 9.55394C33.3608 9.60101 33.3301 9.64809 33.3056 9.70105C33.2627 9.79519 33.2259 9.88934 33.1769 9.9776C33.1707 10.0011 33.1646 10.0188 33.1523 10.0364C33.1462 10.0247 33.1401 10.0188 33.1401 10.0188C33.0603 9.87169 32.9868 9.72458 32.9071 9.58336C32.8948 9.57159 32.8887 9.55982 32.8826 9.54806C32.8458 9.4951 32.8029 9.46568 32.7354 9.46568C32.6741 9.47156 32.625 9.50687 32.5944 9.55982C32.5821 9.58336 32.5821 9.60101 32.576 9.62455C32.5515 9.81285 32.5208 10.0011 32.4963 10.1894C32.484 10.2954 32.4779 10.4013 32.4779 10.5072C32.4718 10.5307 32.4779 10.5601 32.4902 10.5837C32.5025 10.6307 32.5392 10.6602 32.5883 10.6661C32.6496 10.6719 32.6925 10.6543 32.7109 10.6072C32.7293 10.5719 32.7354 10.5425 32.7416 10.5131C32.7661 10.4071 32.7845 10.3071 32.8029 10.2071C32.8151 10.1482 32.8212 10.1012 32.8397 10.0364C32.8519 10.06 32.8641 10.0776 32.8764 10.0953C32.9316 10.1659 32.9868 10.2365 33.0542 10.2954C33.1217 10.3424 33.1769 10.3365 33.232 10.2836C33.2443 10.2718 33.2504 10.2659 33.2627 10.2542C33.3179 10.1718 33.3853 10.0894 33.4405 10.007C33.4527 9.99525 33.4589 9.98349 33.4711 9.97172Z" fill="#3A3B7B"/>
<path d="M19.345 9.81659C19.3023 9.92842 19.2942 10.009 19.3139 10.0759C19.3356 10.167 19.392 10.1968 19.4686 10.1737C20.1887 10.0027 21.7678 10.4879 22.3524 10.6231C22.4902 10.6514 22.6024 10.4806 22.5083 10.3275C22.371 10.1791 20.7927 9.54412 20.1904 9.5095C19.9543 9.4967 19.5323 9.4386 19.345 9.81659Z" fill="#3A3B7B"/>
<path d="M25.5163 7.76096C25.593 7.80347 25.6359 7.84403 25.6571 7.88934C25.6886 7.94878 25.672 7.9899 25.619 8.01089C25.143 8.23386 24.5096 9.1938 24.2539 9.52488C24.1919 9.60104 24.0489 9.55678 24.0273 9.43153C24.0318 9.28992 24.5933 8.24817 24.9066 7.96443C25.0298 7.85365 25.2332 7.63629 25.5163 7.76096Z" fill="#3A3B7B"/>
<path d="M21.7255 7.28845C21.8177 7.22175 21.9135 7.19838 21.9624 7.24173C22.6806 7.83123 23.0615 8.76475 23.2973 9.61937C23.3062 9.63928 23.3067 9.66785 23.2996 9.69766C23.2967 9.72314 23.2773 9.75005 23.2465 9.77087C23.2136 9.79386 23.1853 9.80086 23.1719 9.78105C22.8572 9.37014 21.0594 7.77136 21.7255 7.28845Z" fill="#3A3B7B"/>
<path d="M6.51707 17.5088C6.6892 17.3858 6.87633 17.2834 7.07435 17.204C7.28153 17.1471 7.50236 17.1565 7.70346 17.2309C7.90452 17.3052 8.07497 17.4403 8.18891 17.6158C8.29084 17.7909 8.33071 17.993 8.30257 18.1918C8.27444 18.3905 8.1798 18.575 8.03286 18.7176C7.91896 18.8333 7.78965 18.934 7.64836 19.0172C7.01864 19.4076 6.38331 19.7767 5.74801 20.1671C5.61802 20.2649 5.48011 20.3525 5.33562 20.4292C5.11583 20.5344 4.86465 20.5626 4.62551 20.5089C4.38637 20.4552 4.17431 20.3229 4.026 20.1351C3.91513 20.002 3.82155 19.8566 3.74735 19.7018C3.14548 18.4877 2.52133 17.2788 1.94175 16.0433C1.67425 15.5084 1.45691 14.8933 1.24514 14.2996C1.15352 14.1271 1.13563 13.9271 1.19528 13.7422C1.25493 13.5572 1.38741 13.4018 1.56454 13.3092C1.74167 13.2165 1.94948 13.1938 2.14377 13.246C2.33806 13.2981 2.50351 13.4209 2.60492 13.5882C2.91662 13.9858 3.19255 14.4081 3.4297 14.8506C4.03157 15.9203 4.60558 16.99 5.18515 18.0277C5.2189 18.085 5.25611 18.1403 5.29661 18.1935C5.73284 18.0174 6.14313 17.7873 6.51707 17.5088Z" fill="#3A3B7B"/>
<path d="M12.7401 17.1357C11.3636 18.6815 9.05643 18.291 7.89728 16.3013C7.07249 14.8893 6.9276 12.5572 8.72208 11.0864C9.10527 10.7784 9.56347 10.5686 10.054 10.4766C10.6554 10.3938 11.2686 10.4957 11.8061 10.7675C12.3436 11.0394 12.7777 11.4674 13.0466 11.9903C14.0274 13.7019 13.8881 15.8841 12.7401 17.1357ZM12.1828 13.5307C12.0366 13.1101 11.7432 12.751 11.3524 12.5144C11.1313 12.3632 10.8626 12.2896 10.5917 12.3062C10.3206 12.3228 10.0639 12.4284 9.8645 12.6054C9.0676 13.2847 8.90038 14.8946 9.47996 15.8521C9.55385 16.0082 9.66232 16.1469 9.7979 16.2586C9.93348 16.3702 10.0929 16.4521 10.2648 16.4985C10.4368 16.5448 10.6173 16.5546 10.7936 16.527C10.9699 16.4994 11.1378 16.4352 11.2856 16.3388C11.7176 16.0173 12.0345 15.5747 12.1923 15.0724C12.3501 14.5701 12.341 14.0331 12.1661 13.5361L12.1828 13.5307Z" fill="#3A3B7B"/>
<path d="M18.3572 14.2046C18.2163 14.2337 18.0707 14.2354 17.929 14.2097C17.7874 14.1839 17.6525 14.1313 17.5324 14.0548C17.4273 13.9971 17.3368 13.9178 17.2675 13.8225C17.1982 13.7272 17.1517 13.6184 17.1315 13.5038C17.1112 13.3892 17.1177 13.2718 17.1504 13.1599C17.1831 13.048 17.2413 12.9445 17.3207 12.8567C17.459 12.6803 17.6554 12.5541 17.8779 12.4984C18.459 12.3365 19.0572 12.2378 19.6613 12.2042C19.794 12.1894 19.9284 12.2001 20.0567 12.2359C20.1851 12.2717 20.3046 12.3316 20.4085 12.4124C20.5123 12.4931 20.5983 12.5929 20.6614 12.7059C20.7244 12.819 20.7633 12.943 20.7758 13.0707C20.95 13.6978 20.969 14.3554 20.8315 14.9909C20.33 17.0447 18.6024 17.7508 16.663 17.0929C16.1187 16.917 15.6413 16.5892 15.2921 16.1515C14.8264 15.6244 14.4961 14.9997 14.328 14.3276C14.1918 13.7291 14.2067 13.1082 14.3716 12.5164C14.5364 11.9246 14.8463 11.3792 15.2754 10.9258C15.6827 10.433 16.2112 10.0452 16.8135 9.79726C17.1941 9.59593 17.6395 9.53868 18.0619 9.6368C18.1577 9.66225 18.2446 9.71185 18.3138 9.78044C18.3829 9.84903 18.4316 9.93412 18.4549 10.0269C18.4783 10.1197 18.4753 10.2167 18.4463 10.308C18.4174 10.3993 18.3635 10.4815 18.2903 10.5461C18.1512 10.667 18 10.7745 17.8389 10.867C17.3435 11.1698 16.9123 11.56 16.5683 12.017C16.3428 12.3126 16.1875 12.6522 16.1134 13.0116C16.0392 13.3711 16.048 13.7418 16.1392 14.0976C16.2656 14.5828 16.5461 15.0183 16.9417 15.3438C18.1677 16.4136 19.7615 15.3813 19.4829 13.9211C19.0761 14.0174 18.7194 14.119 18.3572 14.2046Z" fill="#3A3B7B"/>
<path d="M25.8476 17.2213C24.0365 18.2911 21.9745 17.2213 21.5231 14.9749C21.1943 13.3703 21.8185 11.1238 24.0031 10.268C24.4679 10.0899 24.972 10.0273 25.4687 10.0862C26.0655 10.191 26.613 10.473 27.0339 10.8924C27.4548 11.3117 27.728 11.8473 27.8149 12.4236C28.1827 14.333 27.3468 16.3709 25.8476 17.2213ZM26.4774 13.6217C26.4769 13.1773 26.3131 12.7474 26.0149 12.4075C25.8555 12.1973 25.625 12.0467 25.3628 11.9813C25.1006 11.916 24.8229 11.9399 24.577 12.0492C23.5962 12.4556 22.9052 13.9319 23.156 15.0177C23.1751 15.1881 23.2328 15.3524 23.325 15.4992C23.4172 15.6459 23.5417 15.7716 23.6898 15.8674C23.8379 15.9631 24.006 16.0267 24.1823 16.0537C24.3587 16.0805 24.5391 16.0702 24.7108 16.0232C25.2292 15.8494 25.6781 15.5246 25.9948 15.094C26.3116 14.6634 26.4803 14.1487 26.4774 13.6217Z" fill="#3A3B7B"/>
<path d="M29.646 17.6706C29.6187 17.8664 29.5115 18.0437 29.3479 18.1636C29.1843 18.2834 28.9779 18.336 28.7739 18.3098C28.5699 18.2835 28.3852 18.1806 28.2603 18.0236C28.1354 17.8666 28.0806 17.6685 28.108 17.4727C28.1353 17.2769 28.2426 17.0996 28.4061 16.9797C28.5697 16.8599 28.7761 16.8073 28.9801 16.8335C29.1841 16.8598 29.3688 16.9627 29.4937 17.1197C29.6186 17.2767 29.6734 17.4749 29.646 17.6706ZM29.1612 10.4552C29.2672 10.2998 29.4227 10.1815 29.6045 10.1179C29.7863 10.0543 29.9846 10.0488 30.1699 10.1022C30.3583 10.1474 30.5247 10.2534 30.6414 10.4024C30.7581 10.5514 30.8179 10.7343 30.8108 10.9205C30.7862 11.2193 30.7397 11.516 30.6715 11.8084C30.4876 12.7979 30.3092 13.7874 30.1142 14.7663C30.025 15.1567 29.908 15.5311 29.7798 15.9269C29.7352 16.0506 29.6607 16.1624 29.5625 16.2532C29.5014 16.3215 29.4234 16.3738 29.3356 16.4054C29.2479 16.4371 29.1532 16.4469 29.0604 16.4341C28.9677 16.4213 28.8797 16.3863 28.8048 16.3322C28.7299 16.2781 28.6704 16.2068 28.6318 16.1248C28.5656 15.9777 28.5296 15.8197 28.5259 15.6595C28.5259 14.9962 28.5259 14.3277 28.5705 13.6591C28.6463 12.7049 28.7953 11.7574 29.0163 10.8243C29.0424 10.6992 29.0914 10.5797 29.1612 10.4712V10.4552Z" fill="#3A3B7B"/>
<path fill-rule="evenodd" clip-rule="evenodd" d="M4.16243 21.9687C4.09663 22.1097 4.07859 22.2668 4.11074 22.4181C4.13213 22.6175 4.17912 22.8136 4.25062 23.002C4.3399 23.2326 4.4398 23.4607 4.56298 23.7419C4.5913 23.8066 4.6209 23.8741 4.65188 23.9452C4.81799 24.326 5.02642 24.8128 5.30443 25.5172C5.38311 25.7174 5.45299 25.9191 5.52336 26.1223C5.55178 26.2043 5.58031 26.2867 5.60951 26.3692C5.71418 26.6627 5.89428 26.9263 6.13301 27.1352C6.23438 27.25 6.36884 27.3337 6.51961 27.3755C6.67332 27.4182 6.83681 27.4155 6.98889 27.3678C7.14097 27.32 7.27454 27.2295 7.37226 27.1079C7.46807 26.9886 7.52504 26.8449 7.53612 26.6948C7.59828 26.4024 7.57706 26.0992 7.47462 25.8173C7.31202 25.3492 7.12681 24.8804 6.91322 24.4219L6.91224 24.4199C6.56088 23.7026 6.20372 22.9902 5.82966 22.2775L5.82686 22.2725C5.71736 22.0869 5.57505 21.9209 5.40634 21.782C5.29681 21.6581 5.14572 21.5745 4.97888 21.5457C4.80847 21.5163 4.63272 21.546 4.48301 21.6294C4.34138 21.707 4.22911 21.8258 4.16243 21.9687Z" fill="#3A3B7B"/>
<path fill-rule="evenodd" clip-rule="evenodd" d="M9.5292 20.2023C8.97827 20.0654 8.4029 20.0454 7.84319 20.1439C7.40967 20.1849 6.98329 20.2808 6.68722 20.471C6.53664 20.5677 6.41489 20.6919 6.34717 20.8499C6.27908 21.0086 6.27038 21.1902 6.32619 21.3925C6.42807 21.7631 6.56038 22.1235 6.69222 22.4826L6.71358 22.5408L6.71409 22.5421C7.11107 23.5855 7.51183 24.6254 7.91624 25.6617C7.9634 25.8251 8.03009 25.9826 8.11496 26.1312L8.11655 26.134C8.22867 26.3186 8.37248 26.4837 8.5419 26.6224C8.62663 26.6986 8.73141 26.7514 8.84503 26.775C8.95976 26.7987 9.07908 26.7918 9.18999 26.755C9.30094 26.7181 9.39918 26.6527 9.47405 26.5659C9.5477 26.4806 9.59594 26.3777 9.61365 26.2682C9.68674 25.9709 9.66333 25.6591 9.54649 25.3749C9.51003 25.2792 9.48143 25.1815 9.45129 25.0785C9.44124 25.0442 9.43105 25.0093 9.4203 24.9738C10.346 24.6265 11.331 24.1595 11.6773 23.0731C11.813 22.6977 11.8243 22.2912 11.7097 21.9093C11.595 21.527 11.3597 21.1882 11.0362 20.9394C10.5959 20.5912 10.0815 20.3396 9.5292 20.2023ZM8.00209 21.5348C8.02032 21.5298 8.03869 21.5251 8.0571 21.5208C8.65977 21.4298 9.27635 21.551 9.79335 21.8619C10.0212 22.0139 10.1145 22.1829 10.1306 22.3455C10.1471 22.5129 10.0837 22.6943 9.95627 22.8687C9.71553 23.1981 9.27621 23.4617 8.87938 23.5109C8.59008 22.8714 8.2963 22.2061 8.00209 21.5348Z" fill="#3A3B7B"/>
<path d="M13.2021 19.0319C13.8582 18.741 14.6709 18.6908 15.3068 18.8953C15.467 18.9401 15.606 19.0369 15.6999 19.1693C15.7933 19.3008 15.8364 19.4593 15.822 19.6178C15.8211 19.7206 15.7948 19.8218 15.7453 19.9131C15.6949 20.0061 15.6219 20.086 15.5326 20.1462C15.4432 20.2063 15.3401 20.245 15.2319 20.2588C15.1236 20.2727 15.0136 20.2613 14.9109 20.2256L14.9031 20.2229L14.8958 20.2192C14.8432 20.1928 14.7874 20.173 14.7297 20.16L14.7261 20.1592C14.2787 20.0452 13.8567 20.2342 13.7026 20.4663C13.6291 20.5771 13.62 20.6888 13.6812 20.7905C13.7467 20.8993 13.9076 21.0215 14.233 21.1086C14.3225 21.1322 14.4142 21.1549 14.5073 21.178C14.7646 21.242 15.032 21.3084 15.2906 21.4005L15.2916 21.4009C16.4846 21.8365 16.9288 22.7388 16.7767 23.5874C16.6263 24.4267 15.896 25.1904 14.7979 25.3706C14.3983 25.4556 13.9824 25.439 13.5915 25.3226C13.1996 25.2057 12.8463 24.9925 12.5668 24.704L12.5595 24.6965C12.4712 24.5878 12.4119 24.4602 12.3856 24.3247C12.3614 24.2024 12.3741 24.0761 12.4222 23.9605C12.4701 23.8456 12.5511 23.7462 12.6555 23.6738C12.7659 23.5916 12.8989 23.5424 13.0381 23.5321C13.1769 23.5219 13.3157 23.5508 13.4375 23.6153C13.5592 23.6717 13.6724 23.7437 13.774 23.8293L13.776 23.8309C13.9557 23.9887 14.1732 24.0298 14.3817 23.9917C14.5933 23.9531 14.7922 23.8329 14.9202 23.6735C15.0473 23.5151 15.0984 23.3269 15.0378 23.1442C14.9768 22.9602 14.7936 22.754 14.391 22.5817C14.2857 22.5388 14.1766 22.5042 14.0631 22.4705C14.0324 22.4614 14.0013 22.4524 13.9698 22.4432C13.8859 22.4187 13.7995 22.3936 13.7148 22.3658C13.6565 22.3467 13.5986 22.3286 13.5413 22.3107C13.3847 22.2618 13.232 22.214 13.0851 22.15C12.7653 22.0455 12.489 21.8449 12.2973 21.5777C12.1049 21.3095 12.008 20.9888 12.0212 20.6634C12.0222 19.8705 12.5425 19.3243 13.2021 19.0319Z" fill="#3A3B7B"/>
<path d="M21.5198 18.9475C21.3926 18.8878 21.2519 18.8595 21.1105 18.8651C20.969 18.8707 20.8312 18.9099 20.7096 18.9794C20.5887 19.0484 20.4874 19.1451 20.4149 19.2607C20.3484 19.3581 20.3024 19.467 20.2794 19.5814C20.2565 19.6957 20.257 19.8131 20.281 19.9271C20.3047 20.0737 20.331 20.2162 20.3569 20.3567C20.3999 20.5892 20.4416 20.8165 20.4692 21.0483L20.4702 21.0542C20.533 21.4177 20.5659 21.7853 20.5688 22.1537L20.5691 22.1589C20.5905 22.5568 20.4493 22.9469 20.1757 23.2464L20.1713 23.2518C20.0823 23.3613 19.9633 23.4449 19.8275 23.4932C19.6918 23.5415 19.5447 23.5526 19.4028 23.5252C19.2609 23.4979 19.1297 23.4332 19.0239 23.3384C18.9181 23.2435 18.8417 23.122 18.8036 22.988C18.7223 22.7055 18.6753 22.415 18.6633 22.1222L18.8022 19.9997C18.8042 19.972 18.8066 19.9436 18.809 19.9149C18.8142 19.8504 18.8197 19.7848 18.8219 19.7235C18.8252 19.6334 18.8224 19.5407 18.8005 19.453C18.7781 19.3634 18.7355 19.2781 18.66 19.2055C18.5852 19.1336 18.4843 19.0805 18.3573 19.0444C18.1276 18.9806 17.9333 18.9826 17.7715 19.0486C17.6095 19.1145 17.4986 19.2369 17.4201 19.3783C17.3422 19.5185 17.2921 19.6845 17.2542 19.8507C17.2262 19.9741 17.2036 20.1036 17.1821 20.2269C17.1747 20.2694 17.1675 20.3111 17.1601 20.3516L17.1599 20.3528C17.0451 21.0288 17.011 21.7152 17.0581 22.3987C17.0669 22.7681 17.1471 23.1327 17.2948 23.4739C17.4614 23.9141 17.7632 24.2955 18.1603 24.5678C18.5583 24.8406 19.0332 24.991 19.5221 24.9989C20.0111 25.0068 20.491 24.872 20.8984 24.6123C21.305 24.353 21.6202 23.9813 21.8022 23.5464C22.0568 22.9924 22.1763 22.39 22.1517 21.7849C22.1367 21.3432 22.1117 20.8981 22.0868 20.4553C22.0745 20.238 22.0623 20.0213 22.0514 19.8058C22.0459 19.5898 21.9716 19.3805 21.8386 19.2062C21.7563 19.0959 21.6468 19.007 21.5198 18.9475Z" fill="#3A3B7B"/>
<path d="M26.0222 22.2754C26.0093 22.2912 25.9957 22.3074 25.9815 22.3244C25.878 21.7515 25.7821 21.1787 25.6861 20.6051C25.6516 20.3993 25.617 20.1926 25.5822 19.9866L25.5782 19.9636L25.5655 19.9437C25.5415 19.9063 25.5392 19.8697 25.5392 19.7915V19.7825L25.5377 19.7735C25.5117 19.6121 25.4356 19.4618 25.3194 19.3424C25.2035 19.2234 25.053 19.1405 24.8874 19.1046C24.7221 19.0654 24.5484 19.0741 24.3881 19.1294C24.2283 19.1846 24.0889 19.2838 23.9875 19.4145C23.9032 19.5148 23.8341 19.6261 23.7823 19.7451C23.6648 20.0012 23.5462 20.2581 23.4273 20.5156L23.4252 20.52C23.1284 21.1629 22.8296 21.8101 22.5395 22.4624L22.5386 22.4645C22.3605 22.8874 22.2134 23.3331 22.0669 23.7774C22.0376 23.866 22.0084 23.9547 21.9789 24.0431C21.926 24.1833 21.9029 24.3322 21.9108 24.4811C21.9012 24.6143 21.9344 24.7473 22.0061 24.8619C22.0792 24.9789 22.1887 25.071 22.3191 25.1251C22.4574 25.1833 22.6119 25.1957 22.7584 25.1602C22.9045 25.1249 23.0342 25.0439 23.1272 24.9302C23.2459 24.79 23.348 24.6371 23.4313 24.4752C23.6771 23.9927 23.912 23.5042 24.1458 23.0179C24.2363 22.8298 24.3242 22.6614 24.4242 22.4779C24.4311 22.5005 24.4381 22.5226 24.4453 22.5447C24.5501 22.9877 24.7271 23.4119 24.9696 23.802C25.0155 23.8846 25.0794 23.9568 25.157 24.0137C25.2355 24.0712 25.3261 24.1116 25.4226 24.1321C25.519 24.1526 25.6189 24.1527 25.7154 24.1324C25.8117 24.1121 25.9026 24.0717 25.9811 24.0144L26.1366 23.9027L27.3435 22.927L27.2721 23.3635C27.1742 23.9636 27.077 24.5586 26.9737 25.1538C26.9061 25.4176 26.9062 25.6931 26.974 25.9568C27.0033 26.1052 27.0781 26.2418 27.1888 26.3493C27.3004 26.4576 27.4433 26.5312 27.599 26.5605C27.7547 26.5899 27.9161 26.5736 28.062 26.5138C28.2059 26.455 28.3282 26.3565 28.4138 26.2311C28.6128 25.9941 28.7366 25.7072 28.7706 25.4046C28.8219 24.9772 28.8797 24.544 28.9376 24.1109C29.0043 23.6117 29.071 23.1126 29.1273 22.6232L29.1275 22.6217C29.1817 22.0859 29.2079 21.5479 29.2061 21.0095C29.218 20.8394 29.1739 20.6699 29.0798 20.5251C28.9855 20.3798 28.8457 20.2668 28.6806 20.2021C28.5088 20.1272 28.3165 20.1071 28.1319 20.145C27.9486 20.1826 27.7826 20.2754 27.6581 20.4098C27.4355 20.6074 27.2267 20.8188 27.0329 21.0427L27.0316 21.0443C26.8202 21.2972 26.6101 21.5551 26.4014 21.8113C26.2746 21.967 26.148 22.1224 26.0222 22.2754Z" fill="#3A3B7B"/>
</g>
<defs>
<clipPath id="clip0_211_2056">
<rect width="32.7153" height="20.186" fill="white" transform="translate(1.16064 7.21973)"/>
</clipPath>
</defs>
</svg>
