<svg width="34" height="34" viewBox="0 0 34 34" fill="none" xmlns="http://www.w3.org/2000/svg">
<g clip-path="url(#clip0_211_2046)">
<path fill-rule="evenodd" clip-rule="evenodd" d="M9.97876 3.15002C13.823 3.15002 16.9395 6.26643 16.9395 10.1107V3.15002H23.9002C27.7444 3.15002 30.8608 6.26643 30.8608 10.1107C30.8608 13.955 27.7444 17.0714 23.9002 17.0714C27.7444 17.0714 30.8608 20.1879 30.8608 24.0321C30.8608 25.9409 30.0925 27.6703 28.8482 28.9278L28.8221 28.9541L28.799 28.9771C27.5412 30.2232 25.8106 30.9928 23.9002 30.9928C22.0027 30.9928 20.2826 30.2336 19.027 29.0024C19.0107 28.9864 18.9944 28.9702 18.9782 28.9541C18.9629 28.9388 18.9478 28.9235 18.9327 28.9081C17.6998 27.6523 16.9395 25.931 16.9395 24.0321C16.9395 27.8764 13.823 30.9928 9.97876 30.9928C6.13447 30.9928 3.01807 27.8764 3.01807 24.0321V17.0714H9.97876C6.13447 17.0714 3.01807 13.955 3.01807 10.1107C3.01807 6.26643 6.13447 3.15002 9.97876 3.15002ZM15.5473 10.1107C15.5473 13.1862 13.0542 15.6793 9.97876 15.6793V4.54216C13.0542 4.54216 15.5473 7.03529 15.5473 10.1107ZM29.4687 24.0321C29.4687 20.9567 26.9756 18.4636 23.9002 18.4636C20.8247 18.4636 18.3316 20.9567 18.3316 24.0321H29.4687ZM4.41021 18.4636V24.0321C4.41021 27.1076 6.90333 29.6007 9.97876 29.6007C13.0542 29.6007 15.5473 27.1076 15.5473 24.0321V18.4636H4.41021ZM18.3316 15.6793V4.54216H23.9002C26.9756 4.54216 29.4687 7.03529 29.4687 10.1107C29.4687 13.1862 26.9756 15.6793 23.9002 15.6793H18.3316Z" fill="#263238"/>
</g>
<defs>
<clipPath id="clip0_211_2046">
<rect width="27.8428" height="27.8428" fill="white" transform="translate(3.01807 3.15002)"/>
</clipPath>
</defs>
</svg>
