<svg width="14" height="13" viewBox="0 0 14 13" fill="none" xmlns="http://www.w3.org/2000/svg">
<g clip-path="url(#clip0_1315_231)">
<path fill-rule="evenodd" clip-rule="evenodd" d="M12.4607 0.766873C12.6025 0.908682 12.6505 1.11919 12.5843 1.30848L8.92989 11.7495C8.85918 11.9516 8.6723 12.09 8.45843 12.0987C8.24456 12.1074 8.04703 11.9847 7.96009 11.7891L5.95343 7.2741L1.43845 5.26744C1.24284 5.18051 1.12013 4.98298 1.12885 4.7691C1.13758 4.55523 1.27598 4.36835 1.47801 4.29764L11.9191 0.643276C12.1083 0.577025 12.3189 0.625064 12.4607 0.766873ZM6.97162 6.99421L8.37941 10.1617L10.843 3.12279L6.97162 6.99421ZM10.1047 2.38449L3.0658 4.84813L6.23332 6.25592L10.1047 2.38449Z" fill="white"/>
</g>
<defs>
<clipPath id="clip0_1315_231">
<rect width="12.5293" height="12.5293" fill="white" transform="translate(0.606445 0.0919189)"/>
</clipPath>
</defs>
</svg>
